<?xml version="1.0" standalone="no"?>
<!DOCTYPE svg PUBLIC "-//W3C//DTD SVG 20010904//EN"
 "http://www.w3.org/TR/2001/REC-SVG-20010904/DTD/svg10.dtd">
<svg version="1.0" xmlns="http://www.w3.org/2000/svg"
 width="640.000000pt" height="640.000000pt" viewBox="0 0 640.000000 640.000000"
 preserveAspectRatio="xMidYMid meet">

<g transform="translate(0.000000,640.000000) scale(0.100000,-0.100000)"
fill="#000000" stroke="none">
<path d="M0 3345 l0 -3055 324 0 c313 0 325 1 347 21 l24 20 -28 -4 c-22 -3
-27 -1 -23 10 8 19 -4 64 -14 58 -5 -3 -13 3 -19 12 -8 14 -4 23 17 40 l27 21
-27 7 c-32 8 -32 9 -17 37 7 14 14 17 18 9 5 -7 15 -3 31 14 13 14 18 25 11
25 -6 0 -14 -7 -17 -15 -5 -11 -11 -12 -25 -4 -15 7 -19 6 -19 -6 0 -18 -1
-18 -34 -5 -24 9 -37 40 -17 40 5 0 11 8 14 19 3 14 -5 22 -33 35 -20 9 -42
16 -48 16 -7 0 -12 9 -12 20 0 11 5 20 10 20 6 0 10 4 10 10 0 5 -8 6 -17 3
-17 -7 -17 -6 -1 18 15 24 15 26 0 37 -14 9 -14 13 -4 20 10 7 10 11 -3 22
-19 15 -26 10 -28 -21 -1 -22 -18 -49 -31 -49 -3 0 -6 9 -6 20 0 12 -7 20 -17
20 -15 0 -15 1 0 18 12 13 13 22 6 29 -7 7 -5 14 6 23 23 19 18 28 -15 26 -17
-1 -30 1 -30 6 0 4 4 8 10 8 15 0 25 51 11 59 -6 4 -12 19 -13 34 -1 15 -6 27
-11 27 -14 0 25 34 42 37 8 1 24 13 34 27 15 22 22 24 44 15 22 -8 24 -7 15 4
-7 8 -9 17 -5 20 12 12 23 7 24 -10 0 -11 3 -13 6 -5 2 6 12 12 21 11 11 0 12
-2 5 -6 -24 -9 -13 -20 17 -15 18 2 30 0 30 -7 0 -6 11 -8 30 -4 24 4 30 2 30
-11 0 -14 4 -15 21 -6 21 12 41 5 24 -8 -12 -8 -19 -62 -9 -62 4 0 12 7 19 16
10 14 15 14 33 3 12 -7 22 -22 24 -33 2 -11 10 -22 18 -24 13 -5 13 -3 1 11
-7 10 -9 17 -3 17 9 0 19 -20 37 -75 4 -13 8 -16 14 -7 5 9 12 8 29 -4 12 -8
20 -19 17 -24 -3 -5 4 -11 15 -15 13 -4 19 -14 17 -28 -1 -16 3 -21 16 -19 11
2 17 -4 17 -18 0 -11 7 -20 16 -20 9 0 12 -5 8 -12 -5 -7 -2 -9 8 -5 11 4 18
-2 22 -19 4 -13 10 -23 14 -22 16 3 49 -17 74 -46 28 -31 37 -53 18 -41 -5 3
-10 1 -10 -5 0 -7 8 -9 20 -5 24 7 26 -7 5 -29 -21 -21 -19 -29 6 -16 25 14
49 6 49 -15 0 -9 4 -13 10 -10 25 15 7 -13 -27 -43 -36 -32 -37 -33 -11 -28
27 6 32 -4 14 -32 -7 -12 -4 -12 14 -2 18 9 24 9 30 0 4 -7 13 -10 19 -6 18
11 63 -25 58 -46 -4 -15 0 -19 16 -18 36 3 43 0 27 -11 -10 -7 11 -8 70 -4
114 8 133 13 126 30 -4 10 1 15 14 15 12 0 20 7 20 18 0 9 -4 13 -8 7 -16 -23
-87 -2 -77 22 3 11 1 13 -10 9 -8 -3 -15 -2 -15 3 0 4 -11 14 -25 21 -14 7
-25 22 -25 32 0 10 -7 18 -16 18 -10 0 -14 6 -11 14 4 10 1 13 -7 10 -8 -3
-16 4 -19 16 -3 12 -10 19 -16 15 -11 -6 -16 27 -5 38 12 12 62 -14 59 -31 -1
-9 0 -11 2 -4 3 6 8 12 13 12 11 0 242 -54 340 -79 146 -38 175 -46 180 -46
13 -2 77 -17 94 -22 15 -4 16 -7 5 -14 -10 -6 -6 -9 14 -9 16 0 26 4 22 10 -3
6 -1 10 4 10 6 0 11 -4 11 -10 0 -5 12 -10 28 -10 26 1 26 1 7 16 -16 12 -45
22 -110 40 -5 2 -84 21 -175 44 -91 22 -221 56 -290 76 -69 19 -136 37 -150
40 -14 3 -26 9 -28 15 -2 5 -15 9 -28 9 -17 0 -27 8 -34 25 -5 14 -12 25 -16
25 -3 0 -4 -7 0 -15 6 -16 -3 -19 -28 -9 -9 3 -16 13 -16 22 0 13 3 12 16 -4
15 -19 15 -19 11 2 -3 12 -1 28 4 35 7 11 9 9 9 -6 0 -17 2 -17 10 -5 5 8 7
24 4 35 -4 14 -3 16 4 7 5 -7 18 -14 30 -15 11 0 18 -5 16 -9 -3 -4 -1 -8 4
-8 6 0 8 -10 5 -22 -6 -22 -6 -22 15 2 12 14 21 19 22 13 0 -7 6 -13 14 -13 8
0 22 -7 30 -16 12 -12 16 -12 16 -2 0 8 3 9 8 3 27 -39 336 -133 450 -138 6 0
12 -6 12 -12 0 -8 21 -11 67 -8 53 3 65 1 55 -9 -7 -7 -12 -17 -12 -23 0 -5 4
-4 9 4 10 16 71 23 71 8 0 -5 7 -4 15 3 12 10 15 10 15 -1 0 -12 2 -12 9 -1 6
10 10 7 15 -13 7 -26 8 -27 22 -9 14 18 14 18 8 -1 -5 -19 -5 -19 9 -2 15 18
15 18 20 0 4 -16 5 -16 6 2 1 17 3 18 11 5 8 -12 10 -12 10 -1 0 10 6 9 27 -4
23 -16 25 -16 20 -1 -4 9 -2 16 3 16 6 0 10 7 10 16 0 10 -6 14 -15 10 -10 -3
-15 1 -15 12 0 15 -2 15 -10 2 -8 -12 -10 -12 -10 5 0 17 -2 17 -10 5 -9 -13
-10 -13 -10 0 0 12 -2 12 -9 2 -7 -11 -23 -12 -82 -3 -41 6 -94 13 -119 16
-25 3 -61 7 -80 10 -19 2 -60 7 -90 10 -79 8 -154 24 -217 46 -66 22 -293 147
-293 161 0 5 -5 6 -10 3 -5 -3 -10 -2 -10 4 0 5 -9 13 -20 16 -11 4 -18 10
-15 15 5 8 -23 25 -37 22 -5 -1 -8 3 -8 9 0 5 -4 8 -8 5 -5 -3 -9 1 -9 8 0 8
10 13 22 12 14 0 21 -6 18 -13 -3 -8 3 -13 15 -13 11 0 23 -6 25 -12 4 -10 6
-10 6 0 1 7 -6 15 -14 18 -8 4 -15 12 -15 19 0 6 -10 17 -22 23 -21 10 -21 10
9 9 25 -2 32 -6 28 -18 -3 -9 0 -16 7 -17 7 0 23 -3 36 -6 28 -6 29 10 1 19
-11 4 -24 18 -29 31 -5 13 -14 24 -20 24 -5 0 -10 4 -10 8 0 11 61 10 80 -2
12 -7 12 -6 3 4 -6 7 -9 19 -6 26 9 25 23 15 24 -18 2 -31 2 -31 6 -5 5 30 12
32 63 16 19 -5 46 -12 60 -15 14 -3 88 -25 166 -50 77 -24 148 -44 157 -44 20
0 23 16 5 18 -7 0 -51 15 -98 32 -89 32 -313 103 -390 123 -41 11 -45 15 -48
45 -2 21 1 31 9 30 6 -2 13 5 14 15 2 9 -3 17 -11 17 -8 0 -14 5 -14 11 0 5
-4 8 -9 4 -5 -3 -13 0 -17 6 -10 17 33 9 296 -59 305 -78 293 -75 288 -60 -2
6 -15 13 -29 14 -13 0 -48 8 -76 17 -29 9 -53 13 -53 10 0 -3 -7 0 -15 7 -9 7
-18 10 -22 7 -3 -3 -17 0 -32 7 -14 7 -34 12 -43 11 -10 -2 -18 1 -18 6 0 4
-7 5 -17 2 -12 -5 -14 -3 -8 7 6 10 3 12 -13 8 -12 -4 -22 -3 -22 1 0 4 -41
20 -90 36 -50 15 -96 32 -103 39 -7 6 -21 13 -32 14 -20 4 -35 19 -35 37 0 6
5 3 10 -5 9 -13 10 -13 10 0 0 10 3 11 8 4 4 -6 17 -10 30 -9 12 1 22 -2 22
-7 0 -5 4 -7 9 -4 5 4 12 0 14 -6 4 -9 6 -8 6 2 1 8 -8 21 -19 28 -11 7 -20
19 -20 27 0 8 -12 18 -26 21 -18 5 -22 9 -13 15 7 4 16 6 20 4 10 -7 200 -53
243 -59 21 -4 42 -9 47 -12 5 -3 9 1 9 8 0 9 3 10 8 2 10 -15 72 -24 72 -10 0
8 3 8 8 0 4 -6 16 -9 27 -6 11 3 45 5 75 6 30 1 58 6 62 11 5 6 8 6 8 -2 0
-11 24 -12 36 -1 3 4 12 4 20 1 8 -3 14 0 14 5 0 6 13 9 30 7 39 -5 30 11 -10
17 -22 3 -30 1 -30 -11 0 -14 -1 -14 -10 -1 -5 8 -10 11 -10 5 0 -5 -5 -3 -11
5 -9 13 -10 12 -5 -2 6 -20 -2 -22 -24 -8 -9 6 -11 10 -3 10 7 0 10 6 7 14 -6
15 -48 13 -69 -3 -5 -4 -50 -8 -100 -10 -82 -1 -133 7 -255 44 -55 16 -136 50
-142 59 -17 25 -8 34 26 26 19 -4 37 -5 40 -2 4 3 6 1 6 -5 0 -5 6 -10 13 -10
11 0 94 -16 147 -28 14 -3 42 -8 63 -10 32 -4 38 -2 33 11 -3 8 -2 13 3 9 5
-3 12 1 15 7 3 7 3 2 0 -10 -6 -22 -4 -24 31 -19 44 6 49 10 41 35 -6 16 -14
19 -51 17 -25 -2 -45 0 -45 3 0 4 -24 5 -54 4 -33 -2 -78 3 -113 14 -32 10
-61 17 -65 16 -5 -1 -8 3 -8 10 0 6 -3 9 -6 5 -4 -3 -13 1 -21 9 -8 8 -18 12
-23 9 -5 -3 -11 4 -15 15 -4 11 -10 18 -14 15 -5 -2 -17 5 -27 17 -19 20 -19
21 3 14 14 -5 23 -3 23 4 0 8 6 8 20 0 11 -6 25 -8 30 -5 6 3 10 1 10 -5 0 -6
4 -9 9 -5 5 3 12 1 16 -5 4 -6 11 -8 16 -5 5 4 9 2 9 -4 0 -5 9 -8 20 -6 11 2
20 -2 20 -8 0 -7 4 -6 10 3 7 11 10 11 10 2 0 -7 5 -10 10 -7 6 3 10 0 10 -7
0 -10 2 -10 9 1 7 11 10 10 14 -5 4 -18 5 -18 6 1 1 15 3 17 10 7 6 -10 10 -7
13 12 4 20 1 26 -13 26 -29 0 -49 11 -49 29 0 14 -2 14 -10 1 -6 -10 -10 -11
-10 -2 0 6 -9 12 -20 12 -13 0 -22 9 -26 27 -7 25 -8 25 -15 8 -7 -18 -8 -17
-8 5 -1 18 -4 21 -10 11 -7 -11 -9 -11 -14 0 -4 11 -6 11 -6 1 -1 -10 -4 -10
-16 2 -8 8 -15 20 -15 26 0 6 -5 8 -10 5 -6 -3 -10 1 -10 10 0 14 2 14 23 0
28 -18 45 -8 19 11 -15 11 -12 13 20 11 25 -1 38 -7 38 -16 0 -20 6 -11 14 22
6 24 4 27 -18 27 -19 0 -24 4 -19 16 4 10 1 14 -8 13 -21 -5 -59 23 -59 43 0
14 7 17 30 14 17 -2 30 1 30 8 0 6 5 4 11 -4 9 -13 10 -13 6 0 -2 8 -10 14
-16 13 -6 -2 -11 2 -11 9 0 6 -3 8 -6 5 -11 -11 -44 13 -38 28 5 12 58 32 77
27 4 -1 7 3 7 8 0 6 -18 8 -44 5 -43 -5 -45 -5 -42 20 3 28 37 69 78 94 20 13
24 21 17 31 -7 12 -9 11 -9 -5 0 -14 -3 -16 -8 -7 -7 9 -15 6 -37 -13 l-28
-26 5 23 c3 13 9 32 14 43 7 18 6 18 -9 6 -22 -17 -22 -3 0 21 9 10 14 21 11
23 -3 3 -14 -8 -25 -24 l-19 -30 -24 39 c-14 22 -28 40 -33 40 -9 0 19 -56 33
-65 5 -3 10 -11 10 -16 0 -6 -5 -7 -12 -3 -7 4 -8 3 -4 -5 4 -6 11 -9 16 -6 8
5 20 -28 20 -59 0 -16 -5 -14 -29 13 -16 18 -41 52 -57 77 -23 37 -44 56 -44
40 0 -10 31 -76 36 -76 3 0 2 5 -1 10 -3 6 -4 10 -2 10 12 0 46 -73 43 -93 -2
-12 8 -36 22 -54 13 -18 22 -39 19 -47 -4 -9 -23 3 -64 41 -74 69 -120 101
-210 147 -80 40 -83 41 -83 25 0 -5 4 -7 10 -4 5 3 10 1 10 -4 0 -6 5 -11 10
-11 40 0 290 -174 290 -202 0 -5 -4 -6 -10 -3 -5 3 -10 2 -10 -3 0 -6 14 -15
30 -21 32 -11 42 -47 15 -57 -13 -6 -88 16 -127 37 -23 12 -41 12 -33 0 3 -5
27 -17 54 -26 28 -9 56 -26 65 -40 14 -21 13 -31 -10 -122 -15 -54 -32 -120
-39 -148 -11 -47 -57 -196 -61 -204 -2 -1 -18 8 -36 22 -36 27 -97 59 -66 35
9 -7 24 -18 33 -23 17 -10 17 -13 0 -45 -10 -19 -25 -40 -33 -46 -8 -6 -12
-16 -8 -23 4 -7 2 -10 -5 -9 -7 2 -25 -19 -40 -46 -14 -26 -32 -52 -39 -56 -7
-4 -10 -12 -7 -17 7 -11 -30 -30 -53 -28 -8 1 -22 3 -31 3 -9 1 -19 11 -22 23
-3 12 -10 18 -15 15 -6 -3 -26 1 -46 9 -20 8 -36 13 -36 10 0 -3 -17 4 -37 15
-21 11 -47 20 -58 20 -17 -1 -16 -3 7 -16 32 -17 37 -28 9 -19 -11 3 -22 2
-25 -4 -3 -5 -15 -7 -25 -4 -10 3 -22 0 -26 -7 -5 -8 -11 -7 -23 2 -14 11 -15
10 -9 -6 6 -16 3 -18 -20 -13 -33 7 -103 -21 -103 -40 0 -7 -7 -13 -16 -13
-10 0 -14 6 -10 15 3 8 1 15 -3 15 -5 0 -12 -6 -14 -12 -3 -8 -6 -6 -6 5 -1
14 -5 16 -20 7 -25 -13 -53 -14 -32 -1 16 11 21 87 5 84 -15 -3 -6 33 12 48
16 13 19 33 4 24 -6 -3 -7 1 -4 9 4 9 1 16 -6 16 -9 0 -9 4 1 17 12 14 12 16
0 8 -11 -6 -12 -5 -5 6 5 8 9 34 10 59 5 104 16 164 32 177 59 45 127 30 627
-140 11 -4 -5 4 -35 19 -30 14 -100 41 -155 60 -55 18 -131 45 -169 58 -38 14
-73 23 -78 20 -4 -3 -8 -1 -8 3 0 11 -143 45 -201 47 -25 1 -50 6 -57 10 -7 4
-12 2 -12 -3 0 -6 -4 -11 -9 -11 -5 0 -7 10 -4 23 4 18 3 19 -6 7 -6 -8 -11
-11 -11 -6 0 5 8 18 18 29 12 15 13 18 2 12 -10 -5 -8 -1 4 13 10 12 16 28 13
37 -4 8 -2 15 3 15 6 0 10 7 10 16 0 9 -5 13 -12 9 -7 -4 -5 0 4 8 10 8 18 19
18 26 0 6 5 11 10 11 6 0 10 5 10 11 0 5 -4 7 -10 4 -5 -3 -10 -1 -10 4 0 6 5
11 11 11 5 0 7 5 4 10 -3 6 -1 10 5 10 7 0 10 13 7 32 -2 22 3 38 17 52 13 13
16 21 8 24 -17 5 -15 22 3 22 10 0 15 10 15 26 0 22 2 25 15 14 11 -9 15 -9
15 -1 0 8 20 10 61 7 70 -4 67 9 -5 18 -41 6 -94 34 -69 37 4 1 14 2 21 3 7 0
16 6 20 12 4 6 15 13 25 17 19 7 24 47 5 47 -6 0 -4 7 5 18 10 11 17 36 17 63
0 24 6 51 13 60 10 14 16 14 45 2 19 -8 32 -20 32 -31 0 -14 2 -15 10 -2 8 13
21 9 85 -23 140 -69 111 -38 -40 43 -82 45 -155 88 -162 97 -24 31 -1 33 33 3
19 -16 40 -30 47 -30 8 0 8 3 -2 9 -8 5 -9 11 -3 15 5 3 9 26 7 50 -1 25 2 43
6 40 5 -2 13 12 18 33 6 21 18 48 26 61 l16 22 28 -27 c41 -42 71 -89 63 -98
-4 -5 -2 -5 4 -2 6 4 25 -14 43 -38 18 -25 34 -45 37 -45 6 0 5 2 -74 123 -74
115 -121 209 -129 263 -5 39 -5 39 12 16 9 -13 15 -26 12 -28 -5 -5 28 -44 37
-44 5 0 21 62 18 73 -1 4 5 7 14 7 8 0 12 5 9 10 -3 6 1 13 10 16 14 6 14 8
-2 20 -17 13 -17 14 -1 8 13 -4 21 2 28 22 9 22 13 25 20 14 6 -10 9 -5 12 16
2 17 8 28 16 27 6 -2 12 4 12 12 0 8 -6 13 -12 11 -7 -1 -10 -1 -5 1 4 3 5 9
2 13 -3 5 0 12 6 16 8 4 9 3 5 -4 -4 -7 -1 -12 8 -12 8 0 18 5 22 12 5 7 3 8
-7 3 -11 -7 -11 -5 1 9 10 13 15 15 18 6 3 -7 11 2 19 21 11 27 16 31 24 19 9
-13 10 -12 5 2 -3 10 1 24 9 31 8 8 21 30 29 48 11 24 14 27 10 9 -4 -19 -3
-22 5 -10 6 8 11 21 11 28 0 7 7 20 15 28 8 9 15 11 15 6 0 -5 -3 -12 -7 -16
-4 -3 -8 -14 -9 -24 -2 -14 0 -14 12 3 8 11 17 18 20 17 3 -2 9 0 12 4 4 4 1
4 -7 -1 -9 -5 -12 -3 -9 6 3 8 15 14 27 14 12 0 29 9 37 19 14 20 14 20 15 0
0 -10 3 -13 6 -6 2 7 14 17 25 23 12 6 18 7 14 1 -3 -5 3 -12 14 -15 11 -3 18
-1 14 4 -3 5 9 9 25 9 24 0 31 4 31 20 0 11 5 20 10 20 6 0 10 -5 10 -12 0 -6
7 -4 18 5 11 10 35 17 59 17 29 0 46 6 62 24 12 13 43 29 67 36 27 8 40 16 34
20 -7 4 18 13 54 21 36 7 64 15 61 17 -25 26 258 130 293 108 6 -3 13 -2 16 3
3 5 35 8 71 6 36 -1 65 2 65 6 0 5 8 9 18 9 15 0 21 -12 29 -57 l10 -58 2 59
c1 47 4 57 16 52 8 -3 15 -2 15 2 1 4 12 21 26 37 15 17 23 24 20 18 -4 -7 -3
-13 2 -13 6 0 13 12 16 26 4 15 10 24 13 21 7 -7 27 12 35 35 4 9 15 21 26 27
17 9 21 3 41 -55 25 -68 50 -84 71 -44 7 13 21 20 39 20 16 0 33 6 39 13 14
17 15 256 1 273 -7 8 -7 14 1 19 6 3 8 11 5 16 -5 7 9 13 18 7 1 -1 13 4 26
11 19 11 25 11 32 0 5 -8 6 -22 3 -31 -5 -17 13 -93 26 -113 4 -5 10 -27 14
-47 4 -21 11 -38 16 -38 6 0 10 -6 10 -13 0 -7 9 -23 21 -35 11 -13 21 -31 22
-42 1 -11 7 -20 13 -20 7 0 16 -9 19 -21 4 -11 18 -24 32 -30 16 -6 23 -15 20
-24 -4 -10 -1 -12 11 -8 14 5 15 3 5 -8 -17 -17 -16 -26 2 -33 8 -3 14 0 12 6
-5 25 19 15 34 -15 12 -25 23 -33 53 -37 20 -3 36 -9 36 -15 -1 -5 -8 -9 -17
-7 -8 2 -12 -1 -9 -7 4 -5 19 -9 34 -9 29 1 72 -17 72 -31 0 -10 -48 -51 -60
-51 -5 0 -7 -7 -4 -15 7 -17 55 -20 71 -4 18 18 66 6 79 -19 10 -20 8 -27 -10
-47 -11 -13 -30 -40 -40 -60 -17 -31 -18 -40 -7 -57 11 -17 10 -23 -7 -42 -12
-12 -18 -31 -16 -45 2 -13 -2 -36 -9 -50 -8 -15 -11 -36 -7 -46 6 -16 14 -9
52 43 l45 62 -3 -70 c-3 -66 -5 -73 -36 -98 -17 -15 -39 -34 -47 -43 -34 -35
-126 -43 -175 -17 -24 14 -28 15 -56 17 -11 0 -20 5 -20 10 0 5 10 7 23 4 15
-3 10 3 -15 18 -21 13 -38 29 -38 36 0 7 -4 13 -10 13 -5 0 -10 -4 -10 -10 0
-5 -4 -10 -10 -10 -16 0 -11 22 9 44 20 21 20 21 -17 21 l-37 0 1 45 c1 29 7
48 17 54 13 9 10 16 -26 47 l-42 38 -35 -21 c-19 -12 -73 -49 -120 -83 -47
-35 -109 -77 -137 -95 -29 -17 -53 -36 -53 -42 0 -14 71 -3 133 21 16 6 33 9
38 5 5 -3 9 -1 9 4 0 5 16 12 37 15 32 6 42 1 87 -34 28 -23 55 -47 59 -55 4
-8 15 -14 22 -14 8 0 15 -4 15 -10 0 -5 7 -10 15 -10 8 0 15 -4 15 -10 0 -5 5
-10 11 -10 6 0 20 -10 31 -22 15 -18 18 -19 14 -5 -3 9 -1 17 4 17 6 0 10 -8
10 -17 0 -9 3 -13 7 -10 10 11 32 -48 43 -119 9 -55 8 -69 -10 -115 -37 -94
-50 -174 -60 -381 -18 -384 -21 -433 -27 -478 -3 -25 -6 -53 -5 -62 0 -10 -3
-18 -9 -18 -5 0 -8 -5 -6 -12 1 -6 -11 -18 -28 -27 -16 -9 -32 -19 -33 -24 -2
-4 -8 -5 -13 -1 -5 3 -9 1 -9 -5 0 -5 -16 -15 -35 -22 -19 -7 -35 -16 -35 -20
0 -3 -29 -21 -65 -40 -36 -18 -65 -37 -65 -42 0 -4 -4 -6 -9 -2 -6 3 -14 -3
-20 -12 -6 -10 -11 -14 -11 -10 0 9 -93 -43 -98 -55 -2 -4 -12 -8 -23 -8 -10
0 -19 -5 -19 -11 0 -5 -4 -7 -10 -4 -5 3 -10 -2 -10 -12 0 -15 -2 -16 -10 -3
-6 9 -10 10 -10 3 0 -12 -23 -22 -63 -28 -12 -2 -35 -6 -52 -10 -24 -5 -81
-13 -132 -17 -7 -1 -15 -8 -17 -15 -3 -8 -2 -12 2 -9 5 3 47 8 93 12 46 3 87
11 91 18 5 7 8 6 8 -4 0 -9 3 -11 8 -5 8 12 22 13 39 2 9 -6 11 -3 6 10 -5 14
-3 16 7 6 11 -10 16 -9 27 5 8 9 11 11 8 4 -6 -11 -3 -12 14 -3 11 7 21 8 21
4 0 -4 7 1 15 11 11 14 15 16 15 5 0 -12 2 -12 9 0 5 8 16 11 26 8 9 -4 14 -3
10 3 -3 6 -1 10 5 10 7 0 9 7 6 16 -5 14 -4 15 9 4 12 -10 16 -9 21 5 5 13 9
14 15 3 7 -10 9 -9 9 5 0 10 5 15 10 12 6 -3 10 0 11 7 0 7 4 4 9 -7 5 -11 9
-14 9 -7 1 7 5 11 10 7 5 -3 13 5 17 17 7 22 7 22 15 3 7 -19 8 -19 8 -1 1 11
4 17 7 13 3 -3 18 5 32 18 14 13 30 21 35 18 5 -3 13 1 18 8 7 11 9 11 9 1 0
-7 11 -1 25 14 14 15 25 21 25 14 0 -8 6 -6 18 6 9 10 24 20 33 22 14 2 16 -6
12 -45 -2 -27 -8 -50 -14 -52 -25 -8 -59 -50 -58 -72 l0 -24 10 25 c8 20 12
22 20 10 8 -13 10 -13 19 0 8 13 10 12 10 -2 0 -10 -4 -18 -10 -18 -5 0 -9 -3
-8 -7 3 -14 -34 -93 -42 -88 -6 4 -49 -10 -131 -43 -15 -6 -30 -8 -33 -5 -3 4
-6 0 -6 -7 0 -7 -3 -11 -6 -7 -8 7 -64 -13 -64 -23 0 -4 7 -10 15 -14 8 -3 15
-2 15 3 0 16 45 6 63 -13 12 -14 17 -15 17 -5 0 11 2 12 9 1 6 -11 10 -10 15
4 6 16 8 16 16 4 9 -13 10 -13 10 0 0 13 1 13 10 0 8 -12 10 -12 10 -1 0 8 3
11 7 8 3 -4 13 -1 21 6 9 6 13 7 10 2 -4 -6 -3 -17 2 -25 7 -12 11 -10 17 7 7
20 10 20 28 6 19 -13 19 -14 1 -11 -14 2 -19 -4 -22 -29 -4 -32 9 -46 19 -20
3 6 6 2 6 -10 1 -12 -4 -25 -9 -28 -5 -3 -10 -1 -10 5 0 6 -5 8 -10 5 -6 -4
-8 -11 -5 -16 4 -5 1 -9 -4 -9 -6 0 -11 6 -11 14 0 25 -34 10 -41 -17 -9 -33
6 -36 16 -4 4 13 8 17 12 10 2 -7 9 -13 15 -13 5 0 17 -8 26 -17 16 -16 16
-16 0 -10 -10 3 -18 2 -18 -3 0 -6 5 -10 10 -10 6 0 10 -9 10 -20 0 -30 -28
-80 -45 -80 -7 0 -17 -5 -21 -12 -5 -7 -3 -8 6 -3 9 5 11 4 6 -4 -5 -7 -13 -8
-23 -2 -10 5 -21 5 -27 0 -81 -66 -165 -114 -123 -70 9 10 7 10 -11 0 -19 -12
-24 -12 -32 1 -5 8 -10 11 -10 5 0 -7 -3 -7 -8 0 -4 6 -29 21 -57 34 -27 13
-62 29 -76 37 -14 7 -29 11 -33 7 -3 -3 -6 -1 -6 5 0 7 -9 12 -20 12 -11 0
-20 4 -20 10 0 5 -3 9 -7 8 -5 -1 -21 4 -38 11 -33 14 -36 15 -82 26 -18 4
-33 11 -33 16 0 5 -11 9 -25 9 -14 0 -25 -3 -25 -7 0 -9 69 -38 113 -49 15 -3
30 -10 33 -15 3 -5 14 -9 25 -9 10 0 19 -5 19 -11 0 -5 4 -7 10 -4 5 3 10 1
10 -5 0 -6 4 -8 10 -5 5 3 10 1 10 -5 0 -6 4 -8 10 -5 5 3 10 1 10 -5 0 -6 4
-8 10 -5 5 3 10 1 10 -4 0 -6 7 -11 15 -11 8 0 15 -5 15 -11 0 -6 7 -9 15 -5
10 3 15 -1 15 -12 0 -15 2 -15 10 -2 5 8 10 10 10 4 0 -6 11 -16 24 -24 14 -7
22 -18 20 -25 -3 -6 2 -12 10 -12 8 0 13 4 10 8 -2 4 0 10 6 14 6 4 10 -6 11
-22 0 -15 3 -22 6 -15 7 18 24 14 21 -5 -2 -15 4 -18 34 -18 37 0 66 -14 32
-16 -10 -1 -30 -2 -43 -2 -15 -1 -27 -11 -32 -25 -8 -22 -7 -22 34 -18 23 3
54 7 70 11 30 6 34 -2 12 -31 -18 -24 -19 -44 -1 -44 8 0 16 -5 18 -12 5 -15
28 -1 28 17 0 8 10 25 22 38 13 13 38 42 57 64 19 23 51 47 70 54 20 8 60 26
90 41 29 16 60 28 68 28 8 0 11 5 7 11 -4 8 1 9 16 4 13 -4 20 -3 17 2 -8 13
35 44 101 73 34 16 48 26 40 31 -10 6 -8 12 7 23 11 8 23 12 27 10 5 -3 12 6
18 20 5 14 12 26 15 26 4 0 3 -6 0 -12 -4 -7 3 -2 14 11 12 13 21 20 21 17 0
-3 17 13 38 36 88 100 136 144 117 106 -4 -7 1 -4 9 6 9 11 16 26 16 34 0 8 6
12 14 9 9 -4 14 -1 12 6 -1 7 -1 9 1 4 3 -4 9 -4 15 -1 13 8 -14 -43 -69 -129
-54 -85 -52 -81 -57 -76 -3 2 8 23 24 46 16 23 23 40 17 37 -13 -5 -52 -70
-52 -88 -1 -6 -7 -10 -14 -8 -7 1 -9 -2 -5 -9 3 -6 0 -15 -7 -20 -20 -13 36
-11 104 2 49 10 57 15 57 34 0 39 51 65 77 39 17 -17 16 -25 -1 -18 -12 5 -73
-44 -64 -51 9 -7 54 -29 61 -30 10 0 40 -67 57 -128 l13 -47 36 6 c20 4 65 16
101 27 36 11 70 22 75 23 42 12 222 80 311 118 238 101 386 206 442 316 29 60
39 59 15 0 -6 -14 -9 -28 -7 -31 2 -4 -3 -10 -12 -13 -33 -13 -1 -23 57 -19
43 4 64 2 69 -7 11 -18 33 -1 27 21 -6 24 9 25 22 2 8 -13 10 -14 11 -4 0 11
4 9 14 -5 12 -15 18 -17 33 -7 10 6 17 16 15 22 -1 6 4 11 12 11 8 0 13 -8 12
-17 -1 -22 41 -26 53 -5 10 19 2 52 -13 52 -6 0 -3 5 7 11 10 6 24 9 31 6 6
-3 20 1 30 9 11 7 23 11 28 8 5 -3 15 0 23 6 8 6 18 9 23 6 6 -3 15 1 22 10 7
8 19 13 27 10 8 -3 17 4 22 17 8 21 14 23 73 19 34 -2 68 -8 73 -14 7 -8 6 -9
-1 -5 -7 4 -14 0 -18 -8 -3 -9 0 -15 8 -15 8 0 21 -3 30 -6 11 -4 16 -1 16 10
0 9 -5 16 -12 16 -6 0 -9 3 -6 6 10 9 48 -15 45 -29 -1 -8 15 -12 52 -13 31
-1 56 -6 61 -14 4 -7 17 -10 29 -7 12 3 19 2 16 -3 -3 -4 2 -10 10 -14 8 -3
15 0 15 6 0 7 4 7 13 0 6 -6 15 -10 19 -9 3 1 10 -1 14 -5 4 -5 -7 -8 -24 -8
-18 0 -32 -4 -32 -10 0 -5 16 -10 36 -10 28 0 34 -3 26 -12 -11 -14 0 -52 18
-63 9 -6 9 -9 0 -15 -8 -5 -5 -9 9 -13 12 -3 19 -1 15 4 -3 5 5 9 18 8 13 0
17 -3 11 -6 -7 -2 -13 -9 -13 -14 0 -6 6 -7 13 -4 6 4 5 1 -3 -7 -24 -21 -22
-49 4 -47 11 1 38 1 60 1 31 -2 37 -5 32 -19 -6 -15 -4 -14 14 2 14 13 33 18
60 17 22 -2 49 2 61 9 12 6 19 7 16 2 -3 -5 24 -9 64 -8 72 1 89 -6 70 -29 -9
-10 -3 -12 27 -10 23 1 44 -4 56 -15 11 -9 16 -11 13 -5 -4 7 3 14 18 17 27 5
44 -8 23 -16 -9 -4 -8 -6 3 -6 8 -1 20 4 27 11 9 9 12 9 12 -1 0 -11 3 -11 17
0 11 10 14 10 9 2 -11 -19 5 -16 21 4 14 17 14 17 9 -1 -5 -15 -2 -17 14 -13
11 3 18 2 15 -2 -2 -5 9 -8 26 -9 24 -1 29 3 25 15 -5 11 -2 14 10 9 8 -3 18
-6 20 -6 2 0 4 -7 4 -15 0 -8 5 -15 11 -15 5 0 8 4 4 9 -5 9 144 5 173 -4 7
-3 26 -2 42 2 l30 6 0 304 0 304 -377 -4 c-208 -2 -306 -2 -218 0 145 4 157 5
130 18 -30 13 -30 13 25 15 30 1 46 5 36 7 -33 9 -230 -8 -215 -18 8 -5 -55
-9 -158 -9 -185 0 -189 1 -163 50 8 15 24 18 112 20 189 4 249 7 254 13 4 3
16 2 28 -2 11 -4 39 -6 61 -4 22 2 68 6 102 9 38 3 77 1 99 -6 20 -7 39 -8 43
-4 3 5 20 10 36 11 40 2 139 12 143 14 5 3 23 7 42 8 15 1 20 8 20 32 0 26 -3
30 -17 24 -61 -26 -184 -44 -338 -49 -93 -4 -190 -9 -215 -11 -25 -2 -117 -6
-205 -7 l-160 -3 -1 51 -2 52 112 5 c61 3 140 6 176 7 108 1 272 18 283 29 7
7 7 14 2 20 -6 6 -135 11 -297 12 -158 1 -291 5 -297 8 -18 12 -80 172 -68
175 7 2 55 9 107 15 109 14 720 145 868 187 l52 15 0 283 0 283 -128 6 c-70 3
-139 11 -152 16 -18 7 1 9 70 6 l95 -4 -80 12 c-70 11 -77 14 -60 24 19 12 18
12 -10 13 -16 0 -41 7 -55 15 -43 25 -47 16 -5 -10 46 -28 37 -32 -15 -7 -19
9 -36 25 -38 36 -3 16 1 17 40 11 23 -4 105 -23 181 -41 76 -19 142 -34 148
-34 5 0 9 677 9 1795 l0 1795 -3200 0 -3200 0 0 -3055z m3027 1457 c4 1 24 -6
43 -16 30 -16 35 -17 44 -4 8 13 13 13 38 1 16 -8 36 -12 44 -9 9 3 28 -3 43
-13 16 -12 36 -17 52 -14 16 3 30 -1 38 -11 8 -9 23 -16 35 -16 12 0 28 -6 35
-12 11 -11 14 -10 18 0 8 21 32 -18 33 -52 0 -16 12 -59 26 -95 15 -36 27 -75
27 -87 0 -26 -33 -73 -51 -74 -16 0 -32 -15 -55 -51 -14 -22 -15 -34 -7 -79 6
-29 15 -59 21 -67 13 -15 43 -18 34 -3 -15 24 12 7 42 -27 31 -34 32 -38 18
-59 -8 -12 -10 -24 -6 -26 19 -7 17 -128 -1 -128 -16 0 -23 86 -8 95 6 4 8 10
5 15 -3 5 -18 -5 -34 -22 l-28 -32 -36 17 c-33 16 -39 16 -73 2 -44 -18 -76
-19 -92 -3 -17 17 -15 -4 2 -27 12 -17 18 -18 52 -7 41 13 65 16 98 14 19 -2
19 -3 2 -15 -18 -13 -18 -14 -1 -20 10 -4 15 -13 11 -22 -3 -8 -1 -26 4 -39
12 -31 -4 -46 -50 -46 -20 0 -63 -9 -95 -20 -32 -11 -60 -19 -62 -17 -8 8 145
77 159 72 11 -4 17 2 22 21 9 33 4 38 -42 40 -25 1 -47 -7 -68 -22 -17 -13
-36 -24 -42 -24 -7 0 -12 -5 -12 -11 0 -6 -7 -8 -16 -5 -11 4 -22 -1 -31 -14
-8 -11 -24 -20 -37 -20 -13 0 -31 -9 -41 -20 -15 -17 -16 -20 -3 -20 32 0 -9
-105 -58 -147 -33 -28 -37 -29 -29 -3 8 24 -12 27 -41 5 -24 -18 -34 -19 -34
-1 0 18 -30 30 -44 16 -7 -7 -19 -1 -38 21 -15 16 -32 27 -38 24 -15 -9 -50
13 -50 32 0 9 -14 28 -32 43 -17 14 -32 35 -33 46 -1 10 -10 36 -19 57 -9 21
-14 43 -10 49 4 5 0 14 -7 19 -14 8 -17 21 -22 89 -1 19 -7 38 -13 42 -17 11
-16 126 2 153 12 19 15 47 13 127 -3 121 0 129 77 177 38 24 53 39 49 49 -3 9
7 26 27 43 l33 28 -27 1 c-16 0 -28 4 -28 10 0 11 53 40 75 40 8 0 15 4 15 9
0 11 65 35 99 36 14 1 26 6 29 13 2 8 9 9 22 2 11 -6 23 -9 27 -8z m601 -355
c37 -30 96 -73 132 -97 36 -23 85 -62 110 -85 44 -41 48 -43 129 -50 139 -11
174 -34 197 -130 3 -16 21 -57 40 -90 18 -33 44 -95 57 -137 14 -43 34 -90 45
-105 11 -16 29 -48 42 -72 12 -24 46 -72 75 -106 29 -35 56 -73 60 -86 10 -31
65 -119 74 -119 4 0 13 12 19 26 7 14 8 23 2 19 -5 -3 -10 0 -10 9 0 8 -6 16
-12 18 -10 4 -10 10 0 32 16 35 15 54 -2 72 -10 9 -13 28 -11 54 3 23 0 38 -4
35 -5 -3 -7 4 -4 14 3 11 13 21 22 24 14 3 17 12 14 34 -4 21 -1 30 10 30 8 0
13 -7 10 -16 -4 -21 16 -51 23 -34 3 7 11 10 19 7 9 -4 13 2 11 20 -2 14 1 23
5 20 5 -3 11 8 15 23 11 53 14 57 26 45 8 -8 15 -8 24 -1 9 7 18 5 33 -8 27
-22 26 -27 -4 -41 -27 -13 -34 -32 -11 -32 11 0 12 -7 7 -27 -8 -31 13 -65 35
-56 8 3 14 4 14 2 0 -2 4 -19 9 -36 7 -22 6 -35 -1 -39 -7 -4 -8 -2 -4 4 4 7
2 12 -3 12 -15 0 -14 -30 2 -30 7 -1 5 -6 -5 -14 -10 -7 -18 -19 -18 -25 0 -7
-5 -9 -11 -5 -8 5 -8 1 0 -13 6 -11 8 -23 5 -26 -3 -3 -1 -8 5 -12 6 -3 11 -1
11 4 0 6 9 11 20 11 19 0 26 -19 21 -59 -2 -7 2 -10 8 -6 6 3 11 -1 11 -9 0
-9 5 -16 10 -16 6 0 10 25 10 55 0 30 5 55 10 55 6 0 10 -4 10 -10 0 -5 4 -10
8 -10 5 0 9 7 9 15 0 8 -4 12 -9 9 -5 -3 -6 6 -2 20 4 18 2 26 -7 26 -11 0
-11 2 0 9 16 10 23 51 9 51 -14 0 -9 40 7 56 13 13 15 12 21 -11 3 -14 12 -25
20 -25 7 0 16 -11 20 -25 3 -14 13 -25 21 -25 8 0 13 -8 11 -18 -2 -11 2 -21
7 -23 6 -2 11 6 13 19 2 12 -1 22 -7 22 -7 0 -11 26 -11 66 0 38 4 63 9 59 5
-3 7 -21 4 -40 -4 -24 -2 -35 6 -35 8 0 10 8 6 19 -8 26 15 39 30 18 18 -25
26 -21 19 8 -3 14 -3 33 2 42 5 11 12 -35 19 -122 7 -90 7 -145 1 -153 -6 -9
-6 -16 2 -21 11 -6 42 -395 34 -421 -3 -8 -8 -8 -17 0 -11 9 -12 7 -8 -8 2
-11 0 -23 -6 -26 -6 -4 -11 -2 -11 4 0 6 -5 8 -11 4 -9 -5 -10 2 -6 22 3 16 4
23 1 16 -3 -6 -10 -10 -15 -6 -5 3 -9 -2 -9 -10 0 -21 -10 -20 -26 2 -12 16
-13 15 -14 -5 0 -13 -5 -23 -11 -23 -6 0 -8 8 -5 18 5 15 5 15 -6 1 -7 -9 -20
-16 -30 -16 -13 0 -14 4 -5 17 8 14 5 28 -12 60 -17 33 -19 41 -6 37 13 -6 20
4 16 26 -1 4 -2 19 -3 32 -2 25 -9 29 -37 25 -9 -1 -12 5 -8 19 4 17 0 21 -19
21 -15 0 -24 6 -24 15 0 18 -4 19 -30 3 -27 -17 -50 3 -30 27 12 15 11 16 -5
13 -10 -1 -20 3 -22 10 -3 6 0 12 6 12 6 0 11 9 11 20 0 11 5 20 11 20 5 0 7
5 3 12 -6 9 -9 9 -12 0 -6 -20 -22 -13 -19 9 1 12 -5 24 -13 27 -8 3 -12 1 -8
-3 5 -5 -1 -14 -12 -22 -10 -7 -17 -20 -14 -28 3 -8 -1 -22 -10 -30 -9 -9 -16
-13 -16 -9 0 4 -3 5 -6 1 -15 -14 89 -126 118 -127 11 0 15 -7 12 -22 l-5 -23
12 22 c14 27 39 38 39 18 0 -28 -1 -30 -16 -28 -9 0 -13 -1 -10 -4 3 -3 1 -13
-4 -23 -5 -10 -6 -30 -1 -47 5 -19 5 -36 -1 -44 -8 -11 -9 -11 -5 3 4 11 -2
18 -16 22 -12 3 -18 8 -14 12 4 4 -2 13 -13 21 -11 8 -20 20 -20 26 -1 19 -39
94 -40 77 0 -11 -6 -8 -20 9 -17 19 -18 26 -8 39 11 13 10 15 -3 10 -21 -8
-64 48 -61 80 1 14 -2 21 -9 17 -6 -4 -9 0 -7 11 2 13 -2 18 -14 16 -10 -2
-18 2 -18 8 0 5 -5 10 -10 10 -15 0 30 -85 95 -179 30 -45 62 -96 71 -114 9
-17 20 -34 24 -37 4 -3 23 -27 42 -55 19 -27 58 -81 85 -120 118 -162 193
-310 193 -379 0 -25 36 -132 50 -151 11 -14 52 -155 54 -183 1 -13 6 -20 14
-17 6 2 12 -2 12 -10 0 -23 2 -29 22 -49 10 -11 18 -26 18 -33 0 -7 3 -13 8
-13 4 0 7 -25 6 -55 -1 -30 3 -55 8 -55 20 0 43 -34 39 -59 -3 -22 -1 -23 13
-12 14 12 16 11 16 -7 0 -11 -6 -27 -12 -34 -20 -21 -15 -56 14 -88 22 -25 24
-31 11 -39 -12 -6 -13 -12 -4 -29 16 -29 14 -81 -4 -98 -8 -9 -15 -13 -15 -9
0 3 -10 0 -22 -6 -21 -11 -21 -12 -3 -25 39 -28 -23 -82 -87 -75 -9 1 -19 -3
-23 -9 -3 -5 -28 -10 -55 -10 -34 0 -50 -4 -54 -16 -3 -8 -10 -12 -16 -9 -5 3
-10 0 -10 -9 0 -8 6 -16 13 -19 6 -3 -5 -3 -25 -2 -21 2 -42 6 -47 9 -5 4 -12
2 -16 -3 -9 -15 -82 11 -156 55 -36 21 -87 50 -113 64 -44 23 -93 61 -165 130
-14 14 -34 24 -43 22 -11 -2 -60 41 -140 121 -74 75 -138 131 -160 140 -21 9
-38 21 -38 27 0 6 -5 8 -12 3 -21 -12 -38 -12 -38 0 0 7 -5 5 -10 -3 -5 -8
-10 -10 -10 -5 0 6 -5 3 -11 -5 -9 -12 -10 -11 -6 8 3 12 1 20 -4 16 -5 -3 -9
1 -9 8 0 10 -3 9 -11 -2 -8 -12 -9 -8 -5 15 3 17 3 24 -1 16 -5 -11 -7 -11
-14 0 -6 9 -7 1 -4 -21 l5 -35 -11 34 c-10 32 -11 32 -25 15 -9 -11 -12 -13
-8 -5 5 11 3 13 -9 8 -13 -5 -17 -1 -17 17 0 13 -7 29 -15 36 -12 10 -15 9
-15 -4 0 -10 -5 -14 -11 -10 -6 3 -15 1 -19 -6 -5 -9 -9 -8 -13 3 -3 7 -1 20
4 28 7 11 9 11 9 1 0 -7 5 -10 10 -7 6 3 10 13 10 22 0 16 -5 16 -80 -3 -21
-5 -23 -4 -10 8 8 7 21 21 29 31 12 15 12 17 -2 11 -12 -4 -14 -1 -10 17 5 17
3 20 -8 14 -14 -9 14 29 41 53 8 8 2 6 -15 -4 -16 -9 -34 -23 -38 -30 -4 -8
-17 -18 -27 -24 -19 -10 -18 -7 4 45 14 30 22 55 18 55 -3 0 4 7 16 16 12 8
27 25 33 37 8 16 4 14 -16 -8 -27 -29 -27 -29 -20 -5 4 14 14 39 22 55 8 17
16 47 18 68 2 20 11 50 21 65 10 15 19 50 20 82 l3 55 -20 -55 c-11 -30 -30
-89 -43 -130 -13 -41 -37 -109 -54 -150 -16 -41 -34 -88 -39 -105 -7 -20 -17
-30 -31 -31 -18 -1 -20 2 -11 17 12 24 20 25 12 2 -8 -23 1 -14 17 16 6 13 7
21 2 17 -6 -3 -12 4 -14 16 -2 18 -14 2 -47 -62 -53 -103 -150 -264 -162 -268
-5 -2 -7 -7 -4 -12 3 -5 0 -14 -7 -22 -7 -7 -44 -60 -83 -118 -164 -247 -310
-423 -490 -590 l-27 -24 6 69 c4 39 8 79 9 90 1 11 14 26 30 33 16 8 27 21 27
33 0 11 4 18 9 15 4 -3 6 6 3 19 -2 15 0 25 7 25 6 0 11 -8 12 -17 0 -14 3
-12 10 5 5 13 13 21 18 18 5 -3 7 4 5 16 -2 13 -2 17 2 11 8 -17 34 8 34 32 0
11 5 15 15 12 8 -4 17 -2 20 3 4 6 1 10 -5 10 -7 0 -6 5 2 14 9 10 15 11 21 2
4 -6 5 1 3 17 -5 27 8 38 17 15 3 -8 6 -5 6 5 1 10 5 16 9 13 4 -2 8 10 9 27
1 18 -1 23 -4 12 -3 -11 -10 -24 -15 -30 -8 -7 -9 -4 -4 8 3 10 6 28 6 39 0
14 5 18 15 14 9 -3 20 4 27 19 7 13 18 23 23 23 6 -1 10 5 11 13 1 9 -1 10 -3
1 -3 -7 -9 -10 -13 -7 -5 3 -15 -3 -22 -15 -7 -11 -17 -20 -22 -20 -6 0 -33
-24 -61 -52 -27 -29 -72 -71 -99 -92 -26 -21 -57 -48 -68 -60 l-20 -21 7 70
c4 39 9 79 12 90 2 11 5 25 5 32 1 7 5 10 10 7 4 -3 8 4 8 16 0 12 4 19 8 16
4 -2 14 9 21 26 9 20 16 26 21 18 6 -9 10 -6 15 9 3 12 10 19 15 16 4 -3 6 5
2 17 -4 16 -2 19 8 13 8 -5 11 -4 6 3 -3 6 5 19 19 30 14 11 25 25 25 32 0 6
5 8 12 4 7 -4 8 -3 4 4 -4 7 -1 12 7 12 15 0 27 21 27 43 -1 7 -7 1 -15 -13
-8 -14 -14 -22 -15 -18 0 4 -23 -15 -51 -43 -29 -28 -47 -54 -43 -61 4 -7 3
-8 -4 -4 -6 4 -25 -5 -41 -20 -16 -14 -32 -25 -36 -25 -4 1 -8 330 -5 479 0
14 2 15 10 2 7 -11 10 -11 10 -2 0 7 5 10 10 7 6 -3 10 1 10 10 0 9 4 14 9 10
11 -6 26 33 17 42 -3 4 -6 -1 -6 -10 0 -10 -5 -17 -11 -17 -5 0 -7 5 -3 11 3
6 -8 3 -25 -5 l-31 -17 0 30 c0 53 -31 195 -57 261 -29 71 -34 152 -14 213 10
29 18 36 47 42 19 3 38 13 41 21 3 7 13 14 22 15 12 0 11 2 -4 8 -15 6 -23 3
-32 -13 -11 -19 -12 -19 -13 -2 0 23 42 64 60 58 10 -4 10 -6 0 -12 -10 -6 -9
-12 5 -27 12 -12 20 -14 22 -6 3 7 12 9 21 6 14 -6 15 -4 5 8 -10 12 -8 15 8
15 12 0 18 -5 15 -13 -3 -7 -1 -13 4 -13 6 0 10 6 10 13 0 8 14 12 38 12 27 0
40 5 49 20 10 17 12 17 13 3 0 -9 4 -19 9 -22 4 -3 7 5 6 17 -2 17 2 23 19 23
11 0 24 -5 28 -10 5 -7 8 -4 8 7 0 10 8 17 19 17 11 0 22 6 24 13 3 7 6 6 6
-5 1 -9 5 -19 10 -22 5 -4 8 5 7 19 -2 13 1 22 5 19 5 -3 9 -12 9 -20 0 -8 5
-12 10 -9 6 3 10 1 10 -4 0 -6 8 -20 17 -31 16 -19 18 -19 25 -3 4 12 7 4 8
-22 1 -22 6 -49 11 -60 6 -14 7 -1 4 40 -4 53 -3 56 6 25 16 -56 19 -63 25
-57 3 3 -5 50 -19 104 -27 106 -41 198 -27 173 4 -8 16 -47 26 -85 10 -39 24
-75 31 -81 7 -6 10 -14 6 -17 -3 -4 -2 -7 4 -7 5 0 22 13 36 30 15 17 23 30
18 30 -6 0 -14 -7 -19 -16 -8 -15 -10 -14 -16 2 -4 10 -4 15 0 11 12 -12 66
34 59 51 -3 9 -3 13 1 9 4 -4 13 1 21 11 8 9 12 12 9 6 -3 -7 1 -15 10 -18 8
-3 12 -2 9 4 -3 6 1 10 9 10 20 0 30 -17 14 -23 -8 -3 -6 -6 5 -6 10 -1 16 -5
12 -11 -3 -5 -11 -8 -18 -6 -7 1 -8 1 -4 -2 4 -2 2 -11 -5 -20 -12 -15 -11
-15 10 0 27 18 63 13 55 -8 -7 -19 0 -18 25 5 12 10 19 21 15 25 -3 3 -1 6 6
6 7 0 9 5 5 12 -5 7 0 9 14 6 12 -3 21 -3 20 1 -3 27 4 43 17 37 10 -4 19 2
25 17 7 19 15 11 12 -14 -1 -3 10 -4 24 -1 14 2 24 1 23 -4 -3 -15 13 -94 20
-98 4 -3 5 14 4 37 -2 41 -2 41 12 -13 8 -30 19 -84 24 -120 l10 -65 -5 73
c-2 40 0 72 5 72 5 0 7 -9 4 -20 -3 -11 0 -20 6 -20 6 0 11 6 11 13 0 8 3 7 9
-3 6 -8 7 -19 5 -25 -3 -5 2 -1 11 10 17 20 17 20 10 -4 -5 -17 -4 -21 5 -16
9 5 10 1 6 -16 l-7 -24 16 25 16 25 -6 -29 c-5 -23 -3 -27 9 -23 10 4 13 1 9
-9 -4 -10 0 -12 11 -8 8 3 22 -1 30 -9 14 -13 14 -16 1 -21 -8 -3 -15 -10 -15
-16 0 -6 5 -8 12 -4 8 5 9 2 5 -10 -4 -9 -3 -14 2 -11 5 3 13 0 16 -6 4 -5 14
-8 22 -4 14 5 14 3 2 -12 -8 -9 -27 -30 -44 -46 l-30 -29 30 17 c17 10 39 25
50 34 46 39 58 43 27 10 -29 -32 -31 -36 -12 -34 12 1 26 8 31 16 5 8 9 9 9 4
0 -6 -7 -20 -15 -32 -15 -21 -14 -21 15 -13 16 5 34 11 40 15 5 3 10 4 10 1 0
-3 -26 -19 -57 -35 -61 -32 -60 -41 1 -16 35 15 36 15 37 -7 1 -13 1 -26 0
-30 0 -5 3 -8 9 -8 5 0 10 -17 11 -37 1 -34 2 -35 9 -13 7 23 8 23 9 3 1 -16
6 -20 24 -17 12 2 16 2 10 -2 -17 -8 -16 -32 2 -50 11 -11 15 -12 15 -3 0 7 3
9 6 6 4 -4 1 -14 -7 -24 -9 -11 -10 -14 -1 -9 6 4 12 2 12 -3 0 -6 10 -11 23
-11 18 0 19 -2 7 -10 -13 -9 -13 -10 0 -10 13 0 13 -1 0 -10 -12 -8 -11 -10 8
-10 13 0 22 -6 22 -16 0 -9 5 -12 13 -8 6 4 9 4 5 -1 -4 -4 -4 -13 1 -19 5 -6
14 -43 20 -83 24 -157 77 -292 145 -368 38 -43 37 -37 -12 66 -34 72 -58 156
-48 166 3 3 14 -1 24 -10 18 -16 42 -23 42 -12 0 3 -4 13 -9 23 -31 58 -72
174 -77 212 -2 25 -13 63 -23 85 -18 38 -46 112 -97 255 -13 36 -23 76 -24 91
0 14 -4 29 -9 35 -5 5 -31 74 -59 154 -27 80 -60 168 -72 195 -12 28 -37 91
-54 140 -18 50 -43 108 -55 130 l-22 40 5 -37 c3 -21 3 -38 0 -38 -2 0 -22 36
-43 81 -38 78 -75 129 -94 129 -5 0 -6 -7 -3 -16 3 -9 3 -14 -1 -12 -52 26
-108 48 -122 48 -23 0 -84 41 -122 83 l-30 32 6 -27 c4 -16 5 -28 1 -28 -3 0
-24 25 -47 55 -22 30 -49 57 -60 60 -41 13 -79 56 -79 89 0 31 2 33 36 34 19
1 59 -7 87 -18 29 -11 57 -20 63 -20 18 0 134 72 134 83 0 5 8 16 17 23 10 7
14 16 9 21 -5 4 -11 2 -13 -4 -6 -18 -33 -16 -33 1 0 24 12 46 21 40 5 -3 9 2
9 11 0 12 8 15 32 13 33 -3 53 -28 22 -28 -13 0 -15 -3 -7 -11 8 -8 17 -8 33
1 17 9 19 14 9 26 -6 8 -9 18 -5 21 9 9 27 -18 22 -32 -1 -5 4 -15 12 -21 20
-14 8 -68 -13 -60 -11 4 -9 -7 8 -38 22 -43 22 -43 30 -17 9 28 10 198 2 211
-3 5 -1 19 4 33 10 24 9 25 -30 20 -41 -6 -48 2 -29 37 9 17 7 17 -21 7 -26
-10 -32 -9 -44 6 -13 18 -14 17 -30 -7 -9 -13 -26 -26 -37 -28 -16 -2 -26 -17
-39 -58 -10 -30 -28 -63 -39 -72 -25 -20 -65 -24 -75 -8 -5 8 -11 7 -20 0 -8
-6 -26 -10 -42 -8 -39 4 -40 34 -4 88 34 50 38 62 17 54 -8 -3 -18 7 -25 28
-7 18 -19 45 -27 60 -15 29 -19 98 -5 98 5 0 31 -23 59 -52 l51 -52 31 29 c45
43 53 60 33 76 -14 12 -15 11 -8 -10 6 -21 5 -22 -8 -10 -8 8 -13 17 -11 21 3
4 -5 12 -16 18 -11 6 -27 25 -36 42 -9 18 -27 41 -40 51 -15 11 -24 29 -24 46
0 15 -7 36 -15 47 -14 19 -20 44 -9 44 3 0 35 -24 72 -53z m-1262 -29 c74 -49
90 -67 123 -142 36 -80 46 -123 31 -141 -6 -7 -10 -44 -8 -86 l3 -74 -29 -3
c-50 -6 -75 7 -140 71 -100 99 -162 257 -131 333 18 43 32 50 27 12 -4 -27 -2
-29 13 -21 26 15 53 5 108 -38 44 -35 46 -39 28 -49 -11 -5 -27 -10 -35 -10
-9 0 -16 -7 -16 -16 0 -11 -5 -14 -17 -9 -13 4 -15 3 -8 -4 8 -8 21 -7 43 1
40 15 66 2 70 -36 4 -29 17 -34 26 -10 9 24 7 64 -4 64 -5 0 -19 17 -31 38
-23 39 -83 90 -139 118 -24 12 -29 19 -19 25 25 16 54 9 105 -23z m1114 -132
c0 -7 -9 -16 -20 -19 -17 -4 -18 -2 -9 14 11 22 29 25 29 5z m2073 -251 c4 -8
2 -17 -3 -20 -6 -4 -10 3 -10 14 0 25 6 27 13 6z m-823 -25 c0 -5 -2 -10 -4
-10 -3 0 -8 5 -11 10 -3 6 -1 10 4 10 6 0 11 -4 11 -10z m940 -14 c0 -6 -9
-17 -20 -24 -18 -11 -20 -10 -20 11 0 13 3 26 6 30 9 9 34 -3 34 -17z m-423
-8 c-3 -8 -6 -5 -6 6 -1 11 2 17 5 13 3 -3 4 -12 1 -19z m311 -13 c-3 -3 -9 2
-12 12 -6 14 -5 15 5 6 7 -7 10 -15 7 -18z m-551 -42 c-3 -10 -5 -4 -5 12 0
17 2 24 5 18 2 -7 2 -21 0 -30z m565 9 c-7 -2 -12 -8 -12 -14 0 -14 26 -38 34
-31 3 4 6 2 6 -4 0 -6 -7 -16 -15 -23 -13 -11 -14 -10 -9 4 4 12 0 16 -15 16
-14 0 -21 6 -21 18 0 23 34 66 39 50 2 -7 -1 -14 -7 -16z m-61 9 c-7 -5 -11
-14 -7 -20 5 -7 1 -9 -8 -5 -19 7 -21 20 -3 27 20 9 33 7 18 -2z m199 -40 c0
-11 -4 -9 -15 5 -8 10 -15 25 -15 33 0 11 4 9 15 -5 8 -10 15 -25 15 -33z
m-52 15 c4 -35 14 -156 15 -186 1 -19 7 -34 13 -33 14 2 14 -30 0 -39 -8 -5
-7 -8 2 -8 6 0 12 -11 12 -24 0 -29 31 -31 43 -2 7 17 9 18 25 3 14 -13 21
-14 30 -5 7 7 12 8 12 3 0 -5 -16 -23 -36 -42 -24 -22 -34 -38 -30 -49 5 -12
2 -15 -10 -10 -10 4 -14 1 -12 -6 3 -7 12 -14 21 -16 13 -3 17 4 18 25 1 15 1
31 0 36 0 4 8 7 18 7 11 0 22 6 25 13 3 6 4 3 3 -8 -1 -11 4 -20 13 -20 17 0
21 -46 5 -57 -6 -5 -5 -8 3 -8 6 0 12 -9 12 -19 0 -11 5 -23 11 -26 7 -5 4
-14 -7 -26 -9 -11 -14 -22 -11 -26 4 -4 -2 -16 -13 -28 -12 -12 -20 -26 -18
-31 2 -5 -1 -10 -7 -11 -5 -1 -9 5 -7 14 2 8 -1 12 -7 8 -14 -8 -14 -45 -1
-45 6 0 10 -5 10 -11 0 -5 -4 -8 -9 -5 -4 3 -4 -17 1 -45 8 -42 6 -54 -6 -68
-9 -10 -13 -21 -9 -26 5 -4 2 -5 -5 -1 -7 5 -11 11 -8 14 3 3 -2 14 -11 24
-14 16 -15 21 -4 27 11 7 9 13 -8 30 -11 11 -21 18 -22 14 -3 -30 -11 -59 -19
-67 -13 -13 -13 -26 0 -26 6 0 9 4 8 9 -2 5 1 11 7 13 5 1 12 -12 16 -30 6
-28 4 -32 -11 -27 -11 4 -20 -3 -28 -20 -7 -15 -17 -22 -26 -19 -8 3 -17 1
-21 -5 -12 -20 -37 -13 -30 9 4 11 2 20 -4 20 -14 0 -32 -35 -23 -45 4 -5 1
-5 -6 -1 -7 4 -10 11 -7 16 3 5 1 11 -5 15 -5 3 -10 -2 -10 -11 0 -16 -3 -15
-22 3 -22 21 -39 27 -66 24 -19 -2 4 -41 25 -41 13 0 13 -3 3 -15 -7 -8 -19
-15 -27 -15 -9 0 -11 -5 -6 -12 4 -7 9 -35 10 -63 1 -50 1 -50 -11 -17 -6 19
-15 30 -21 25 -5 -4 -4 -1 3 9 8 10 9 19 3 22 -10 7 -25 -29 -17 -42 2 -4 -5
-9 -16 -9 -11 -1 -18 1 -15 4 4 3 -1 12 -9 20 -8 8 -11 20 -7 26 11 18 12 36
3 42 -13 8 -22 -29 -15 -62 6 -25 5 -26 -6 -9 -7 11 -12 31 -13 45 -1 38 -31
39 -47 2 -8 -17 -22 -31 -31 -31 -23 0 -32 17 -14 27 11 7 12 17 3 56 -8 31
-16 46 -24 42 -9 -3 -13 5 -13 23 1 24 2 25 11 8 9 -14 13 -16 20 -5 9 15 -7
39 -27 39 -8 0 -14 5 -14 10 0 6 7 10 15 10 8 0 15 -4 15 -10 0 -5 4 -10 10
-10 5 0 7 7 4 15 -7 18 18 20 47 5 13 -7 19 -7 19 0 0 5 -7 10 -15 10 -9 0
-18 6 -21 14 -3 8 -12 12 -21 9 -9 -4 -19 1 -25 10 -5 10 -16 17 -24 17 -9 0
-12 -5 -8 -12 4 -7 -3 -3 -16 8 -23 23 -20 44 7 44 9 0 13 6 9 15 -3 8 -1 15
4 15 6 0 10 10 10 23 0 13 5 28 12 35 9 9 9 12 0 12 -7 0 -12 6 -12 14 0 9 7
12 20 9 14 -4 20 0 20 12 0 12 -5 15 -20 10 -14 -5 -20 -2 -20 9 0 9 5 16 11
16 7 0 8 11 4 29 -5 24 -2 30 14 36 18 5 20 13 17 58 -2 29 -5 88 -6 132 -3
68 -4 73 -9 35 -9 -66 -21 -26 -20 63 l1 72 14 -40 14 -40 -5 48 c-2 26 -3 47
-1 47 3 0 12 3 21 6 9 4 15 3 14 -2 -1 -5 2 -18 6 -28 6 -13 4 -21 -3 -24 -18
-6 -15 -22 4 -22 13 0 15 -8 12 -35 -3 -24 0 -35 9 -35 16 0 15 3 3 -39 -7
-25 -6 -39 2 -49 10 -11 8 -16 -5 -23 -12 -7 -15 -17 -11 -37 10 -42 24 -50
24 -14 0 36 29 59 48 40 9 -9 12 -9 12 0 0 7 7 24 17 38 12 19 18 22 25 12 6
-10 10 -10 18 2 8 13 10 12 10 -4 0 -10 -7 -24 -16 -30 -14 -11 -14 -14 -1
-24 12 -10 16 -7 21 20 5 24 9 29 18 20 20 -20 40 -14 36 11 -2 13 6 31 20 45
24 25 29 61 10 81 -10 11 -10 13 0 7 6 -4 12 -2 12 3 0 17 27 13 34 -4 3 -8 1
-15 -4 -15 -5 0 -7 -7 -4 -15 4 -8 13 -15 21 -15 8 0 12 4 9 9 -3 5 0 11 7 14
10 4 13 24 13 64 -1 38 3 60 10 60 6 0 11 -5 12 -11z m-909 -15 c11 -11 23
-16 27 -13 4 4 -1 -5 -12 -20 -20 -28 -34 -36 -34 -18 0 6 5 10 10 10 18 0 10
29 -12 44 -12 9 -17 16 -10 16 6 0 21 -9 31 -19z m187 -27 c-4 -9 -9 -15 -11
-12 -3 3 -3 13 1 22 4 9 9 15 11 12 3 -3 3 -13 -1 -22z m769 -61 c-2 -17 3
-23 19 -24 17 -1 17 -2 4 -6 -10 -2 -18 -11 -18 -18 0 -8 -4 -16 -8 -19 -5 -3
-9 25 -10 62 -1 44 2 60 7 47 5 -11 7 -30 6 -42z m-701 -11 c3 -27 3 -64 -1
-83 l-7 -34 -7 30 c-10 45 -10 147 0 141 4 -3 11 -27 15 -54z m-224 27 c0 -5
-4 -8 -9 -5 -5 4 -11 1 -13 -6 -3 -7 -10 -8 -17 -4 -11 7 -11 10 0 17 19 12
39 11 39 -2z m-1373 -46 c2 -29 1 -31 -45 -36 -26 -2 -59 -10 -75 -16 -25 -10
-26 -13 -15 -31 10 -16 22 -21 53 -19 63 3 74 0 85 -21 8 -15 6 -23 -12 -40
-12 -11 -29 -18 -39 -15 -10 3 -23 0 -30 -7 -9 -10 -29 -12 -76 -7 -35 4 -67
9 -70 13 -3 3 -12 1 -20 -6 -10 -8 -17 -8 -25 0 -9 9 -15 9 -25 0 -12 -10 -13
-7 -7 17 6 23 4 27 -9 22 -26 -10 -28 33 -4 77 12 23 25 43 30 44 4 2 7 10 7
17 0 14 72 31 90 20 5 -3 17 1 26 9 12 12 32 15 87 12 72 -3 72 -3 74 -33z
m2143 17 c0 -5 -7 -10 -16 -10 -8 0 -12 5 -9 10 3 6 10 10 16 10 5 0 9 -4 9
-10z m-35 -38 c-3 -3 -11 0 -18 7 -9 10 -8 11 6 5 10 -3 15 -9 12 -12z m-1016
-15 c-3 -24 1 -37 12 -37 6 0 9 7 5 15 -4 12 -2 13 14 2 11 -6 16 -13 10 -15
-5 -2 -10 -15 -10 -28 0 -13 -4 -24 -10 -24 -5 0 -10 5 -10 10 0 6 -6 10 -13
10 -9 0 -14 16 -16 46 -1 31 2 44 9 39 6 -4 10 -12 9 -18z m435 7 c3 -8 2 -12
-4 -9 -6 3 -10 10 -10 16 0 14 7 11 14 -7z m-304 -4 c0 -5 -2 -10 -4 -10 -3 0
-8 5 -11 10 -3 6 -1 10 4 10 6 0 11 -4 11 -10z m507 -87 c-2 -16 -4 -3 -4 27
0 30 2 43 4 28 2 -16 2 -40 0 -55z m49 55 c1 -13 5 -48 9 -78 11 -81 13 -210
3 -210 -4 0 -8 -9 -8 -20 0 -17 -3 -19 -19 -8 -15 9 -21 28 -27 86 -4 49 -3
76 4 81 6 3 13 40 17 80 6 83 18 121 21 69z m-248 -13 c-1 -14 -6 -25 -10 -25
-10 0 -10 13 -2 34 9 23 14 19 12 -9z m472 11 c-7 -7 -13 -7 -20 0 -6 6 -3 10
10 10 13 0 16 -4 10 -10z m290 4 c0 -5 -5 -10 -11 -10 -5 0 -7 5 -4 10 3 6 8
10 11 10 2 0 4 -4 4 -10z m-733 -37 c-3 -10 -5 -4 -5 12 0 17 2 24 5 18 2 -7
2 -21 0 -30z m398 7 c0 -7 -6 -15 -12 -17 -8 -3 -13 4 -13 17 0 13 5 20 13 18
6 -3 12 -11 12 -18z m-495 -80 c0 -5 -2 -10 -4 -10 -3 0 -8 5 -11 10 -3 6 -1
10 4 10 6 0 11 -4 11 -10z m-2730 -10 c0 -5 -7 -7 -15 -4 -8 4 -15 8 -15 10 0
2 7 4 15 4 8 0 15 -4 15 -10z m1140 -24 c0 -3 -4 -8 -10 -11 -5 -3 -10 -1 -10
4 0 6 5 11 10 11 6 0 10 -2 10 -4z m2651 -169 c-10 -9 -11 -8 -5 6 3 10 9 15
12 12 3 -3 0 -11 -7 -18z m-2633 -209 c12 -24 30 -54 39 -68 10 -13 13 -21 6
-17 -8 5 -40 -18 -85 -61 -77 -73 -161 -132 -188 -132 -24 0 -19 86 7 128 l20
32 29 -22 c26 -20 27 -20 12 -2 -22 26 -23 40 -2 48 14 5 15 4 5 -8 -9 -11 -9
-16 0 -22 8 -4 9 -3 5 4 -10 17 9 15 24 -3 12 -15 30 -12 30 5 0 5 -7 7 -15 4
-10 -4 -15 0 -15 16 0 11 5 18 10 15 6 -3 10 -1 10 5 0 7 6 8 19 1 14 -8 20
-7 25 4 3 8 0 17 -6 21 -7 4 -8 3 -4 -4 7 -12 -6 -17 -17 -6 -9 9 4 35 14 28
5 -3 9 2 9 11 0 9 5 13 11 10 6 -4 8 -13 6 -19 -3 -7 1 -13 8 -13 10 0 11 7 5
23 -6 15 -5 24 3 28 7 2 4 5 -6 5 -15 1 -16 3 -5 16 19 21 22 19 46 -27z
m2522 22 c0 -5 -2 -10 -4 -10 -3 0 -8 5 -11 10 -3 6 -1 10 4 10 6 0 11 -4 11
-10z m-950 -61 c-11 -20 -13 -20 -22 -6 -6 11 -5 22 4 31 19 21 32 2 18 -25z
m-1677 -4 c-3 -9 -8 -14 -10 -11 -3 3 -2 9 2 15 9 16 15 13 8 -4z m1746 -43
c-6 -18 -16 -32 -21 -32 -6 0 -5 6 2 15 7 9 10 18 7 21 -5 6 15 35 21 30 1 -2
-3 -17 -9 -34z m804 -32 c3 -11 1 -22 -3 -25 -15 -9 -40 7 -40 26 0 26 36 25
43 -1z m-403 -152 c0 -7 -5 -6 -13 1 -8 6 -18 7 -22 3 -5 -4 -5 -2 -1 5 8 14
36 6 36 -9z m-2309 -111 c-10 -9 -11 -8 -5 6 3 10 9 15 12 12 3 -3 0 -11 -7
-18z m2984 14 c7 -12 -12 -24 -25 -16 -11 7 -4 25 10 25 5 0 11 -4 15 -9z m75
-37 c0 -2 -7 -4 -15 -4 -8 0 -15 4 -15 10 0 5 7 7 15 4 8 -4 15 -8 15 -10z
m-3123 -69 c-4 -8 -11 -15 -17 -15 -14 0 -13 27 3 33 16 6 21 1 14 -18z m1193
-55 c-6 -12 -14 -20 -17 -17 -2 3 1 14 8 26 7 11 15 18 17 16 2 -2 -2 -13 -8
-25z m20 -14 c0 -2 -8 -10 -17 -17 -16 -13 -17 -12 -4 4 13 16 21 21 21 13z
m-233 -178 c-3 -8 -6 -5 -6 6 -1 11 2 17 5 13 3 -3 4 -12 1 -19z m1474 -724
c-9 -28 -9 -29 -10 -3 -1 14 2 29 6 32 11 12 13 2 4 -29z m406 -230 c-3 -3
-12 -4 -19 -1 -8 3 -5 6 6 6 11 1 17 -2 13 -5z m-204 -21 c-7 -2 -19 -2 -25 0
-7 3 -2 5 12 5 14 0 19 -2 13 -5z m-4356 -75 c-3 -8 -6 -5 -6 6 -1 11 2 17 5
13 3 -3 4 -12 1 -19z m433 -17 c0 -4 -6 -8 -14 -8 -8 0 -12 6 -9 14 5 13 23 9
23 -6z m1316 -116 c-3 -9 -10 -13 -16 -10 -6 4 -5 11 3 20 15 16 22 11 13 -10z
m-412 -147 c-4 -24 -11 -46 -16 -49 -6 -3 -9 -9 -9 -13 1 -3 -2 -6 -6 -5 -11
1 -6 33 11 74 20 47 28 44 20 -7z m2011 -8 c-5 -16 -10 -19 -18 -11 -7 7 -6
15 3 26 17 20 24 13 15 -15z m49 22 c2 -4 -4 -8 -14 -8 -10 0 -16 4 -14 8 3 4
9 8 14 8 5 0 11 -4 14 -8z m-3409 -72 c3 -5 1 -10 -4 -10 -6 0 -11 5 -11 10 0
6 2 10 4 10 3 0 8 -4 11 -10z m22 -22 c-3 -7 -5 -2 -5 12 0 14 2 19 5 13 2 -7
2 -19 0 -25z m1739 -43 c-3 -8 -1 -15 4 -15 6 0 5 -10 -2 -25 -6 -13 -15 -22
-19 -19 -5 3 -10 -3 -10 -13 -1 -17 -2 -17 -6 0 -3 10 4 28 14 39 10 12 12 18
6 14 -7 -4 -13 -4 -13 -1 0 6 23 34 29 35 2 0 1 -7 -3 -15z m37 -11 c-4 -12
-8 -13 -14 -3 -9 15 -2 32 11 24 5 -3 6 -13 3 -21z m-2323 2 c0 -3 -4 -8 -10
-11 -5 -3 -10 -1 -10 4 0 6 5 11 10 11 6 0 10 -2 10 -4z m2236 -53 c-11 -21
-15 -23 -16 -10 0 24 22 65 27 50 2 -6 -3 -24 -11 -40z m-1626 27 c0 -5 -2
-10 -4 -10 -3 0 -8 5 -11 10 -3 6 -1 10 4 10 6 0 11 -4 11 -10z m4517 -36 c-6
-6 -47 9 -47 17 0 5 11 3 25 -3 14 -6 24 -13 22 -14z m-5497 -4 c0 -5 -4 -10
-10 -10 -5 0 -10 5 -10 10 0 6 5 10 10 10 6 0 10 -4 10 -10z m5600 6 c0 -3 -4
-8 -10 -11 -5 -3 -10 -1 -10 4 0 6 5 11 10 11 6 0 10 -2 10 -4z m-5560 -126
c0 -5 -8 -10 -17 -10 -15 0 -16 2 -3 10 19 12 20 12 20 0z m2080 -84 c0 -2 -8
-10 -17 -17 -16 -13 -17 -12 -4 4 13 16 21 21 21 13z m-1276 -54 c3 -5 -1 -9
-9 -9 -8 0 -15 4 -15 9 0 4 4 8 9 8 6 0 12 -4 15 -8z m1221 -94 c-19 -11 -30
-5 -21 11 4 6 14 7 22 4 15 -5 14 -7 -1 -15z m-1865 -13 c0 -8 -4 -15 -10 -15
-5 0 -10 7 -10 15 0 8 5 15 10 15 6 0 10 -7 10 -15z m50 -137 c0 -4 -4 -8 -9
-8 -6 0 -12 4 -15 8 -3 5 1 9 9 9 8 0 15 -4 15 -9z"/>
<path d="M3090 4454 c-8 -3 -22 -8 -30 -11 -10 -3 -5 -10 19 -22 l34 -18 -62
-7 c-53 -6 -167 -45 -133 -46 7 0 10 -5 6 -12 -5 -8 0 -9 14 -6 12 4 45 -3 74
-14 l52 -20 17 21 c19 23 44 27 55 9 11 -17 -25 -38 -65 -39 -29 0 -32 -2 -16
-9 12 -4 35 -6 53 -4 18 2 32 -1 32 -6 0 -21 26 -9 37 18 13 28 43 45 100 57
38 8 67 35 37 35 -11 0 -25 9 -32 21 -8 12 -9 18 -3 14 6 -3 11 -2 11 3 0 24
-156 53 -200 36z m-7 -81 c-7 -2 -19 -2 -25 0 -7 3 -2 5 12 5 14 0 19 -2 13
-5z"/>
<path d="M3681 4053 c0 -6 -4 -20 -7 -30 -5 -14 -4 -15 5 -7 7 7 11 20 8 30
-3 11 -5 14 -6 7z"/>
<path d="M5057 3654 c-3 -4 -2 -16 4 -26 10 -18 7 -63 -8 -112 -4 -13 -2 -16
7 -11 9 5 11 4 6 -3 -5 -8 -13 -9 -26 -2 -14 7 -20 6 -24 -7 -4 -9 -2 -21 4
-27 5 -5 10 -20 10 -31 0 -36 8 -37 59 -8 2 2 5 13 5 25 1 13 5 28 9 35 10 15
5 73 -5 67 -4 -3 -8 3 -9 13 -2 51 -20 99 -32 87z m40 -136 c-3 -8 -6 -5 -6 6
-1 11 2 17 5 13 3 -3 4 -12 1 -19z m-36 -61 c-10 -9 -11 -8 -5 6 3 10 9 15 12
12 3 -3 0 -11 -7 -18z"/>
<path d="M4983 3448 c-1 -10 3 -18 9 -16 18 6 21 25 5 31 -8 3 -13 -3 -14 -15z"/>
<path d="M4776 3401 c-17 -7 -18 -8 -3 -14 9 -3 19 -2 22 4 4 5 11 7 16 4 5
-4 9 -1 9 4 0 12 -16 13 -44 2z"/>
<path d="M4845 3380 c3 -5 8 -10 11 -10 2 0 4 5 4 10 0 6 -5 10 -11 10 -5 0
-7 -4 -4 -10z"/>
<path d="M4893 3345 c0 -8 4 -15 9 -15 4 0 8 4 8 9 0 6 -4 12 -8 15 -5 3 -9
-1 -9 -9z"/>
<path d="M4920 3225 c0 -8 7 -15 15 -15 9 0 12 6 9 15 -4 8 -10 15 -15 15 -5
0 -9 -7 -9 -15z"/>
<path d="M5000 3066 c0 -31 6 -34 13 -6 3 11 1 23 -4 26 -5 3 -9 -6 -9 -20z"/>
<path d="M5010 3031 c-24 -7 -24 -7 -3 -13 14 -4 24 -1 27 8 3 8 4 14 3 13 -1
-1 -13 -4 -27 -8z"/>
<path d="M3606 2904 c-10 -25 1 -29 14 -5 6 12 7 21 1 21 -5 0 -12 -7 -15 -16z"/>
<path d="M3680 2865 c-6 -8 -10 -20 -7 -27 3 -7 6 -4 6 7 1 15 3 17 10 6 6 -9
11 -10 15 -2 4 6 2 11 -4 11 -6 0 -8 5 -5 10 9 15 -1 12 -15 -5z"/>
<path d="M3640 2829 c0 -5 5 -7 10 -4 6 3 10 8 10 11 0 2 -4 4 -10 4 -5 0 -10
-5 -10 -11z"/>
<path d="M3325 2820 c3 -5 8 -10 11 -10 2 0 4 5 4 10 0 6 -5 10 -11 10 -5 0
-7 -4 -4 -10z"/>
<path d="M3420 2760 c0 -5 5 -10 11 -10 5 0 7 5 4 10 -3 6 -8 10 -11 10 -2 0
-4 -4 -4 -10z"/>
<path d="M3580 2766 c0 -2 7 -7 16 -10 8 -3 12 -2 9 4 -6 10 -25 14 -25 6z"/>
<path d="M3085 2740 c3 -5 8 -10 11 -10 2 0 4 5 4 10 0 6 -5 10 -11 10 -5 0
-7 -4 -4 -10z"/>
<path d="M3030 2730 c0 -5 5 -10 11 -10 5 0 7 5 4 10 -3 6 -8 10 -11 10 -2 0
-4 -4 -4 -10z"/>
<path d="M2985 2700 c-3 -5 -1 -10 4 -10 6 0 11 5 11 10 0 6 -2 10 -4 10 -3 0
-8 -4 -11 -10z"/>
<path d="M4087 2675 c-9 -19 -15 -35 -12 -35 7 0 37 61 33 66 -3 2 -12 -12
-21 -31z"/>
<path d="M2945 2690 c3 -5 8 -10 11 -10 2 0 4 5 4 10 0 6 -5 10 -11 10 -5 0
-7 -4 -4 -10z"/>
<path d="M3962 2640 c0 -19 2 -27 5 -17 2 9 2 25 0 35 -3 9 -5 1 -5 -18z"/>
<path d="M4241 2494 c0 -11 3 -14 6 -6 3 7 2 16 -1 19 -3 4 -6 -2 -5 -13z"/>
<path d="M3151 2254 c0 -11 3 -14 6 -6 3 7 2 16 -1 19 -3 4 -6 -2 -5 -13z"/>
<path d="M3119 2244 c0 -10 -3 -13 -6 -7 -7 18 -33 -10 -33 -34 1 -17 1 -17
11 0 6 9 14 15 19 12 10 -6 25 33 16 42 -3 4 -6 -2 -7 -13z"/>
<path d="M4205 1959 c-4 -6 -5 -12 -2 -15 2 -3 7 2 10 11 7 17 1 20 -8 4z"/>
<path d="M3260 1900 c0 -5 5 -10 10 -10 6 0 10 5 10 10 0 6 -4 10 -10 10 -5 0
-10 -4 -10 -10z"/>
<path d="M2265 4352 c-11 -8 -14 -72 -4 -72 4 0 9 18 11 40 2 22 3 40 3 40 0
0 -4 -4 -10 -8z"/>
<path d="M2251 4235 c-1 -47 32 -107 82 -148 26 -21 47 -34 47 -29 0 5 -20 26
-45 46 -52 43 -63 61 -75 119 -6 35 -8 37 -9 12z"/>
<path d="M2440 4120 c0 -11 7 -20 15 -20 17 0 18 2 9 24 -9 23 -24 20 -24 -4z"/>
<path d="M5621 3754 c0 -11 3 -14 6 -6 3 7 2 16 -1 19 -3 4 -6 -2 -5 -13z"/>
<path d="M5577 3740 c-3 -11 -2 -20 3 -20 12 0 21 28 11 35 -5 2 -11 -4 -14
-15z"/>
<path d="M5630 3721 c0 -6 5 -13 10 -16 6 -3 10 1 10 9 0 9 -4 16 -10 16 -5 0
-10 -4 -10 -9z"/>
<path d="M5655 3680 c-8 -13 5 -13 25 0 13 8 13 10 -2 10 -9 0 -20 -4 -23 -10z"/>
<path d="M5425 3610 c-3 -5 -1 -10 4 -10 6 0 11 5 11 10 0 6 -2 10 -4 10 -3 0
-8 -4 -11 -10z"/>
<path d="M5420 3581 c0 -5 7 -11 15 -15 9 -3 15 0 15 9 0 8 -7 15 -15 15 -8 0
-15 -4 -15 -9z"/>
<path d="M5800 3455 c0 -18 19 -40 26 -32 4 4 0 15 -9 24 -9 10 -17 13 -17 8z"/>
<path d="M5305 3440 c3 -5 8 -10 11 -10 2 0 4 5 4 10 0 6 -5 10 -11 10 -5 0
-7 -4 -4 -10z"/>
<path d="M5760 3401 c0 -5 5 -13 10 -16 6 -3 10 -2 10 4 0 5 -4 13 -10 16 -5
3 -10 2 -10 -4z"/>
<path d="M5700 3343 c0 -12 -5 -25 -10 -28 -8 -5 -8 -11 -1 -19 6 -7 7 -17 3
-21 -4 -5 -2 -5 4 -2 15 9 23 63 12 79 -5 9 -8 6 -8 -9z"/>
<path d="M5250 3279 c0 -4 9 -11 20 -14 11 -3 20 -10 20 -15 0 -5 7 -7 15 -4
11 5 13 10 5 19 -12 15 -60 26 -60 14z"/>
<path d="M5475 3200 c-3 -5 1 -10 10 -10 9 0 13 5 10 10 -3 6 -8 10 -10 10 -2
0 -7 -4 -10 -10z"/>
<path d="M5275 3150 c-3 -5 -2 -10 4 -10 5 0 13 5 16 10 3 6 2 10 -4 10 -5 0
-13 -4 -16 -10z"/>
<path d="M5327 3118 c-2 -7 -1 -22 4 -33 6 -16 8 -14 8 13 1 33 -4 41 -12 20z"/>
<path d="M5355 3110 c-3 -5 -2 -17 3 -26 8 -14 10 -12 10 9 0 29 -3 33 -13 17z"/>
<path d="M3090 3049 c-7 -11 -9 -23 -6 -27 3 -3 6 1 6 9 0 11 2 11 10 -1 7
-12 10 -12 10 -1 0 8 6 11 16 7 9 -3 12 -2 9 5 -4 6 -14 8 -22 5 -11 -4 -13
-2 -9 9 8 22 -2 18 -14 -6z"/>
<path d="M2201 3564 c0 -11 3 -14 6 -6 3 7 2 16 -1 19 -3 4 -6 -2 -5 -13z"/>
<path d="M1176 3176 c10 -8 21 -12 24 -10 5 6 -21 24 -34 24 -6 0 -1 -6 10
-14z"/>
<path d="M2555 3115 c35 -29 45 -31 45 -7 0 14 -2 15 -10 2 -5 -8 -10 -10 -10
-4 0 6 -12 16 -27 23 l-28 11 30 -25z"/>
<path d="M2705 3050 c-8 -13 26 -21 43 -10 19 10 18 11 -16 15 -12 1 -25 -1
-27 -5z"/>
<path d="M2688 2853 c7 -3 16 -2 19 1 4 3 -2 6 -13 5 -11 0 -14 -3 -6 -6z"/>
<path d="M1020 2220 c6 -11 16 -20 22 -20 6 0 3 9 -7 20 -10 11 -20 20 -22 20
-2 0 1 -9 7 -20z"/>
<path d="M800 2191 c0 -13 28 -33 33 -23 3 4 -3 13 -14 20 -10 7 -19 8 -19 3z"/>
<path d="M878 2143 c7 -3 16 -2 19 1 4 3 -2 6 -13 5 -11 0 -14 -3 -6 -6z"/>
<path d="M1125 2110 c-3 -5 -1 -10 4 -10 6 0 11 5 11 10 0 6 -2 10 -4 10 -3 0
-8 -4 -11 -10z"/>
<path d="M1420 2098 c0 -4 7 -8 15 -8 8 0 15 4 15 8 0 5 -7 9 -15 9 -8 0 -15
-4 -15 -9z"/>
<path d="M1178 2057 c12 -13 19 -27 15 -32 -5 -4 -2 -5 5 -1 11 6 8 13 -9 32
-12 13 -25 24 -27 24 -3 0 4 -10 16 -23z"/>
<path d="M1230 2005 c0 -8 4 -15 8 -15 5 0 9 7 9 15 0 8 -4 15 -9 15 -4 0 -8
-7 -8 -15z"/>
<path d="M6360 1726 c0 -2 9 -6 20 -9 11 -3 20 -1 20 4 0 5 -9 9 -20 9 -11 0
-20 -2 -20 -4z"/>
<path d="M1430 1639 c0 -5 5 -7 10 -4 6 3 10 8 10 11 0 2 -4 4 -10 4 -5 0 -10
-5 -10 -11z"/>
<path d="M1491 1594 c0 -11 3 -14 6 -6 3 7 2 16 -1 19 -3 4 -6 -2 -5 -13z"/>
<path d="M6355 1580 l-40 -7 37 -2 c20 0 40 4 43 9 3 6 5 9 3 9 -2 -1 -21 -5
-43 -9z"/>
<path d="M6265 1561 c24 -7 26 -9 8 -10 -12 0 -24 -4 -26 -8 -3 -5 32 -8 77
-9 44 -1 75 1 67 4 -11 4 -11 6 0 13 9 6 2 9 -22 9 -20 0 -58 2 -85 5 -38 3
-42 2 -19 -4z"/>
<path d="M1541 1534 c0 -11 3 -14 6 -6 3 7 2 16 -1 19 -3 4 -6 -2 -5 -13z"/>
<path d="M6000 1538 c-14 -3 28 -6 93 -7 73 -1 117 3 117 9 0 11 -167 10 -210
-2z"/>
<path d="M1721 1414 c0 -11 3 -14 6 -6 3 7 2 16 -1 19 -3 4 -6 -2 -5 -13z"/>
<path d="M1362 1259 c2 -7 10 -15 17 -17 8 -3 12 1 9 9 -2 7 -10 15 -17 17 -8
3 -12 -1 -9 -9z"/>
<path d="M1400 1245 c0 -6 7 -12 15 -12 8 0 15 6 15 12 0 6 -7 12 -15 12 -8 0
-15 -6 -15 -12z"/>
<path d="M2571 1244 c0 -11 3 -14 6 -6 3 7 2 16 -1 19 -3 4 -6 -2 -5 -13z"/>
<path d="M1441 1234 c0 -11 3 -14 6 -6 3 7 2 16 -1 19 -3 4 -6 -2 -5 -13z"/>
<path d="M1465 1239 c-4 -5 -4 -13 -1 -16 3 -4 6 0 7 8 0 8 4 6 9 -6 7 -16 9
-17 9 -3 1 21 -15 32 -24 17z"/>
<path d="M1501 1214 c0 -11 3 -14 6 -6 3 7 2 16 -1 19 -3 4 -6 -2 -5 -13z"/>
<path d="M1520 1209 c0 -5 5 -7 10 -4 6 3 10 8 10 11 0 2 -4 4 -10 4 -5 0 -10
-5 -10 -11z"/>
<path d="M1580 1208 c-12 -8 -12 -9 2 -5 9 3 19 1 22 -6 3 -9 5 -9 5 0 1 18
-13 23 -29 11z"/>
<path d="M1621 1194 c0 -11 3 -14 6 -6 3 7 2 16 -1 19 -3 4 -6 -2 -5 -13z"/>
<path d="M1640 1189 c0 -6 5 -7 10 -4 6 3 10 2 10 -2 0 -5 16 -10 37 -11 20
-2 40 -5 45 -8 4 -3 8 1 8 8 0 9 3 9 8 2 9 -13 52 -11 77 4 17 10 9 12 -45 11
-36 -1 -84 2 -107 5 -27 3 -43 2 -43 -5z"/>
<path d="M4617 1114 c-12 -12 6 -34 29 -34 l24 0 -20 20 c-22 22 -24 23 -33
14z"/>
<path d="M4430 1098 c0 -11 -5 -15 -15 -12 -8 4 -15 1 -15 -6 0 -8 -8 -10 -21
-7 -16 4 -19 3 -11 -5 8 -8 24 -8 52 -2 39 9 40 10 26 29 -13 18 -15 18 -16 3z"/>
<path d="M1305 1090 c3 -5 8 -10 11 -10 2 0 4 5 4 10 0 6 -5 10 -11 10 -5 0
-7 -4 -4 -10z"/>
<path d="M1336 1088 c3 -5 10 -6 15 -3 13 9 11 12 -6 12 -8 0 -12 -4 -9 -9z"/>
<path d="M2291 1064 c0 -11 3 -14 6 -6 3 7 2 16 -1 19 -3 4 -6 -2 -5 -13z"/>
<path d="M1886 1053 c-6 -14 -5 -15 5 -6 7 7 10 15 7 18 -3 3 -9 -2 -12 -12z"/>
<path d="M4475 1050 c-3 -5 -1 -10 4 -10 6 0 11 5 11 10 0 6 -2 10 -4 10 -3 0
-8 -4 -11 -10z"/>
<path d="M1955 1030 c3 -5 8 -10 11 -10 2 0 4 5 4 10 0 6 -5 10 -11 10 -5 0
-7 -4 -4 -10z"/>
<path d="M1985 1029 c-6 -9 51 -29 60 -21 3 4 10 0 15 -8 9 -13 10 -13 10 0 0
13 1 13 11 0 8 -12 10 -12 7 -1 -4 13 -21 20 -55 23 -7 1 -13 4 -13 8 0 9 -30
8 -35 -1z"/>
<path d="M2516 1013 c-11 -11 -7 -20 9 -20 8 0 15 4 15 8 0 11 -16 20 -24 12z"/>
<path d="M5650 964 l-25 -14 33 0 c17 0 32 4 32 9 0 17 -14 18 -40 5z"/>
<path d="M5700 959 c0 -13 30 -18 52 -10 20 7 18 9 -15 13 -20 2 -37 1 -37 -3z"/>
<path d="M1313 935 c0 -8 4 -15 9 -15 4 0 8 4 8 9 0 6 -4 12 -8 15 -5 3 -9 -1
-9 -9z"/>
<path d="M1340 930 c0 -7 24 -20 36 -20 13 0 1 19 -16 23 -11 3 -20 2 -20 -3z"/>
<path d="M5485 930 c-3 -5 3 -10 15 -10 12 0 18 5 15 10 -3 6 -10 10 -15 10
-5 0 -12 -4 -15 -10z"/>
<path d="M1361 884 c0 -11 3 -14 6 -6 3 7 2 16 -1 19 -3 4 -6 -2 -5 -13z"/>
<path d="M2101 864 c0 -11 3 -14 6 -6 3 7 2 16 -1 19 -3 4 -6 -2 -5 -13z"/>
<path d="M2121 864 c0 -11 3 -14 6 -6 3 7 2 16 -1 19 -3 4 -6 -2 -5 -13z"/>
<path d="M2161 844 c0 -11 3 -14 6 -6 3 7 2 16 -1 19 -3 4 -6 -2 -5 -13z"/>
<path d="M6363 853 c9 -2 23 -2 30 0 6 3 -1 5 -18 5 -16 0 -22 -2 -12 -5z"/>
<path d="M2200 828 c0 -18 2 -20 10 -8 7 11 10 11 10 2 0 -7 5 -10 10 -7 6 3
10 1 10 -5 0 -6 5 -8 10 -5 6 3 10 1 10 -5 0 -6 5 -8 10 -5 6 3 10 1 10 -5 0
-6 5 -8 10 -5 6 3 10 2 10 -3 0 -12 56 -33 64 -25 3 4 6 -1 6 -10 0 -24 14
-21 49 9 28 24 44 53 21 39 -5 -3 -10 -3 -10 2 0 8 -66 16 -122 16 -15 -1 -26
3 -23 7 3 4 -7 11 -23 14 -15 4 -35 9 -44 12 -14 4 -18 0 -18 -18z"/>
<path d="M2978 843 c7 -3 16 -2 19 1 4 3 -2 6 -13 5 -11 0 -14 -3 -6 -6z"/>
<path d="M3044 785 c-17 -13 -16 -14 14 -4 33 11 41 19 19 19 -7 0 -22 -7 -33
-15z"/>
<path d="M846 754 c-4 -10 -1 -14 6 -12 15 5 23 28 10 28 -5 0 -13 -7 -16 -16z"/>
<path d="M1290 732 c0 -4 4 -13 9 -20 7 -11 9 -11 14 1 3 9 -1 18 -9 21 -8 3
-14 2 -14 -2z"/>
<path d="M3365 682 c-11 -2 -24 -10 -30 -17 -20 -26 -103 -64 -153 -71 l-52
-7 -1 29 c0 16 -3 24 -5 17 -3 -7 -29 -29 -57 -50 l-52 -37 -127 2 c-70 1
-129 -1 -132 -6 -2 -4 58 -9 134 -10 114 -2 146 1 177 15 23 10 77 19 135 22
84 6 100 10 122 30 14 14 26 30 26 38 0 7 11 15 25 19 40 10 30 35 -10 26z"/>
<path d="M2675 646 c-32 -14 -82 -63 -73 -71 5 -5 108 72 108 81 0 5 0 5 -35
-10z"/>
<path d="M1040 600 c-15 -10 -15 -10 25 -10 3 0 5 3 6 7 1 12 -15 13 -31 3z"/>
<path d="M2570 560 c-9 -6 -10 -10 -3 -10 6 0 15 5 18 10 8 12 4 12 -15 0z"/>
<path d="M1056 531 c-3 -5 1 -11 9 -14 9 -4 12 -1 8 9 -6 16 -10 17 -17 5z"/>
<path d="M2501 510 c-26 -22 -29 -28 -13 -23 12 3 28 16 37 29 20 30 18 30
-24 -6z"/>
<path d="M1120 519 c0 -5 5 -7 10 -4 6 3 10 8 10 11 0 2 -4 4 -10 4 -5 0 -10
-5 -10 -11z"/>
<path d="M2718 523 c7 -3 16 -2 19 1 4 3 -2 6 -13 5 -11 0 -14 -3 -6 -6z"/>
<path d="M2678 513 c7 -3 16 -2 19 1 4 3 -2 6 -13 5 -11 0 -14 -3 -6 -6z"/>
<path d="M635 490 c-3 -5 -2 -10 4 -10 5 0 13 5 16 10 3 6 2 10 -4 10 -5 0
-13 -4 -16 -10z"/>
<path d="M1066 485 c-11 -8 -15 -15 -10 -15 6 0 19 7 30 15 10 8 15 14 9 14
-5 0 -19 -6 -29 -14z"/>
<path d="M1018 482 c-10 -2 -18 -8 -18 -13 0 -11 11 -11 30 1 18 11 11 18 -12
12z"/>
<path d="M675 430 c-3 -5 -1 -10 4 -10 6 0 11 5 11 10 0 6 -2 10 -4 10 -3 0
-8 -4 -11 -10z"/>
<path d="M1800 393 c0 -16 5 -20 20 -16 11 3 20 13 20 22 0 14 -2 14 -10 1 -9
-13 -11 -13 -20 0 -8 12 -10 11 -10 -7z"/>
<path d="M1880 400 c0 -6 7 -10 15 -10 8 0 15 2 15 4 0 2 -7 6 -15 10 -8 3
-15 1 -15 -4z"/>
<path d="M1561 383 c-1 -16 -6 -21 -16 -17 -8 4 -15 2 -15 -4 0 -15 35 -21 72
-13 18 4 37 7 42 7 5 -1 10 7 12 16 2 17 -3 17 -37 -4 -3 -1 -14 4 -24 12 -11
8 -16 10 -12 3 4 -6 3 -14 -2 -17 -5 -4 -12 4 -14 16 l-4 23 -2 -22z"/>
<path d="M1670 375 c0 -8 4 -15 10 -15 5 0 7 7 4 15 -4 8 -8 15 -10 15 -2 0
-4 -7 -4 -15z"/>
<path d="M1705 380 c-3 -6 1 -13 10 -16 21 -9 26 -2 10 13 -9 8 -16 9 -20 3z"/>
<path d="M735 349 c-9 -14 -2 -20 14 -10 8 6 9 11 3 15 -6 3 -14 1 -17 -5z"/>
<path d="M692 320 c-11 -17 -10 -20 7 -20 11 0 23 5 27 12 5 7 3 8 -6 3 -10
-6 -12 -4 -7 8 9 24 -6 21 -21 -3z"/>
<path d="M0 140 l0 -140 143 0 c132 0 184 8 159 24 -6 3 -17 4 -24 1 -11 -4
-15 3 -15 26 0 28 2 30 13 14 9 -12 19 -15 31 -10 17 8 17 8 -2 13 -26 6 -66
38 -58 46 4 3 7 18 8 32 1 33 -35 59 -97 68 -46 7 -59 18 -38 31 18 11 11 23
-10 18 -11 -3 -20 0 -20 6 0 6 -19 11 -45 11 l-45 0 0 -140z"/>
<path d="M146 263 c-11 -11 -6 -23 9 -23 8 0 15 4 15 9 0 13 -16 22 -24 14z"/>
<path d="M266 115 c-4 -11 1 -14 16 -11 12 1 24 8 26 14 6 18 -35 14 -42 -3z"/>
</g>
</svg>
